<svg xmlns="http://www.w3.org/2000/svg" xmlns:xlink="http://www.w3.org/1999/xlink" version="1.1" class="marks" width="856" height="535" viewBox="0 0 856 535"><rect width="856" height="535" fill="white"/><g fill="none" stroke-miterlimit="10" transform="translate(51,27)"><g class="mark-group role-frame root" role="graphics-object" aria-roledescription="group mark container"><g transform="translate(0,0)"><path class="background" aria-hidden="true" d="M0.5,0.5h800v400h-800Z" stroke="#ddd"/><g><g class="mark-group role-axis" aria-hidden="true"><g transform="translate(0.5,0.5)"><path class="background" aria-hidden="true" d="M0,0h0v0h0Z" pointer-events="none"/><g><g class="mark-rule role-axis-grid" pointer-events="none"><line transform="translate(0,400)" x2="800" y2="0" stroke="#ddd" stroke-width="1" opacity="1"/><line transform="translate(0,360)" x2="800" y2="0" stroke="#ddd" stroke-width="1" opacity="1"/><line transform="translate(0,320)" x2="800" y2="0" stroke="#ddd" stroke-width="1" opacity="1"/><line transform="translate(0,280)" x2="800" y2="0" stroke="#ddd" stroke-width="1" opacity="1"/><line transform="translate(0,240)" x2="800" y2="0" stroke="#ddd" stroke-width="1" opacity="1"/><line transform="translate(0,200)" x2="800" y2="0" stroke="#ddd" stroke-width="1" opacity="1"/><line transform="translate(0,160)" x2="800" y2="0" stroke="#ddd" stroke-width="1" opacity="1"/><line transform="translate(0,120)" x2="800" y2="0" stroke="#ddd" stroke-width="1" opacity="1"/><line transform="translate(0,80)" x2="800" y2="0" stroke="#ddd" stroke-width="1" opacity="1"/><line transform="translate(0,40)" x2="800" y2="0" stroke="#ddd" stroke-width="1" opacity="1"/><line transform="translate(0,0)" x2="800" y2="0" stroke="#ddd" stroke-width="1" opacity="1"/></g></g><path class="foreground" aria-hidden="true" d="" pointer-events="none" display="none"/></g></g><g class="mark-group role-axis" role="graphics-symbol" aria-roledescription="axis" aria-label="X-axis titled 'Command' for a discrete scale with 40 values: lua, luajit, sqlite, jq, janet, ending with wolframscript"><g transform="translate(0.5,400.5)"><path class="background" aria-hidden="true" d="M0,0h0v0h0Z" pointer-events="none"/><g><g class="mark-rule role-axis-tick" pointer-events="none"><line transform="translate(10,0)" x2="0" y2="5" stroke="#888" stroke-width="1" opacity="1"/><line transform="translate(30,0)" x2="0" y2="5" stroke="#888" stroke-width="1" opacity="1"/><line transform="translate(50,0)" x2="0" y2="5" stroke="#888" stroke-width="1" opacity="1"/><line transform="translate(70,0)" x2="0" y2="5" stroke="#888" stroke-width="1" opacity="1"/><line transform="translate(90,0)" x2="0" y2="5" stroke="#888" stroke-width="1" opacity="1"/><line transform="translate(110,0)" x2="0" y2="5" stroke="#888" stroke-width="1" opacity="1"/><line transform="translate(130,0)" x2="0" y2="5" stroke="#888" stroke-width="1" opacity="1"/><line transform="translate(150,0)" x2="0" y2="5" stroke="#888" stroke-width="1" opacity="1"/><line transform="translate(170,0)" x2="0" y2="5" stroke="#888" stroke-width="1" opacity="1"/><line transform="translate(190,0)" x2="0" y2="5" stroke="#888" stroke-width="1" opacity="1"/><line transform="translate(210,0)" x2="0" y2="5" stroke="#888" stroke-width="1" opacity="1"/><line transform="translate(230,0)" x2="0" y2="5" stroke="#888" stroke-width="1" opacity="1"/><line transform="translate(250,0)" x2="0" y2="5" stroke="#888" stroke-width="1" opacity="1"/><line transform="translate(270,0)" x2="0" y2="5" stroke="#888" stroke-width="1" opacity="1"/><line transform="translate(290,0)" x2="0" y2="5" stroke="#888" stroke-width="1" opacity="1"/><line transform="translate(310,0)" x2="0" y2="5" stroke="#888" stroke-width="1" opacity="1"/><line transform="translate(330,0)" x2="0" y2="5" stroke="#888" stroke-width="1" opacity="1"/><line transform="translate(350,0)" x2="0" y2="5" stroke="#888" stroke-width="1" opacity="1"/><line transform="translate(370,0)" x2="0" y2="5" stroke="#888" stroke-width="1" opacity="1"/><line transform="translate(390,0)" x2="0" y2="5" stroke="#888" stroke-width="1" opacity="1"/><line transform="translate(410,0)" x2="0" y2="5" stroke="#888" stroke-width="1" opacity="1"/><line transform="translate(430,0)" x2="0" y2="5" stroke="#888" stroke-width="1" opacity="1"/><line transform="translate(450,0)" x2="0" y2="5" stroke="#888" stroke-width="1" opacity="1"/><line transform="translate(470,0)" x2="0" y2="5" stroke="#888" stroke-width="1" opacity="1"/><line transform="translate(490,0)" x2="0" y2="5" stroke="#888" stroke-width="1" opacity="1"/><line transform="translate(510,0)" x2="0" y2="5" stroke="#888" stroke-width="1" opacity="1"/><line transform="translate(530,0)" x2="0" y2="5" stroke="#888" stroke-width="1" opacity="1"/><line transform="translate(550,0)" x2="0" y2="5" stroke="#888" stroke-width="1" opacity="1"/><line transform="translate(570,0)" x2="0" y2="5" stroke="#888" stroke-width="1" opacity="1"/><line transform="translate(590,0)" x2="0" y2="5" stroke="#888" stroke-width="1" opacity="1"/><line transform="translate(610,0)" x2="0" y2="5" stroke="#888" stroke-width="1" opacity="1"/><line transform="translate(630,0)" x2="0" y2="5" stroke="#888" stroke-width="1" opacity="1"/><line transform="translate(650,0)" x2="0" y2="5" stroke="#888" stroke-width="1" opacity="1"/><line transform="translate(670,0)" x2="0" y2="5" stroke="#888" stroke-width="1" opacity="1"/><line transform="translate(690,0)" x2="0" y2="5" stroke="#888" stroke-width="1" opacity="1"/><line transform="translate(710,0)" x2="0" y2="5" stroke="#888" stroke-width="1" opacity="1"/><line transform="translate(730,0)" x2="0" y2="5" stroke="#888" stroke-width="1" opacity="1"/><line transform="translate(750,0)" x2="0" y2="5" stroke="#888" stroke-width="1" opacity="1"/><line transform="translate(770,0)" x2="0" y2="5" stroke="#888" stroke-width="1" opacity="1"/><line transform="translate(790,0)" x2="0" y2="5" stroke="#888" stroke-width="1" opacity="1"/></g><g class="mark-text role-axis-label" pointer-events="none"><text text-anchor="end" transform="translate(9.5,7) rotate(315) translate(0,8)" font-family="sans-serif" font-size="10px" fill="#000" opacity="1">lua</text><text text-anchor="end" transform="translate(29.5,7) rotate(315) translate(0,8)" font-family="sans-serif" font-size="10px" fill="#000" opacity="1">luajit</text><text text-anchor="end" transform="translate(49.5,7) rotate(315) translate(0,8)" font-family="sans-serif" font-size="10px" fill="#000" opacity="1">sqlite</text><text text-anchor="end" transform="translate(69.5,7) rotate(315) translate(0,8)" font-family="sans-serif" font-size="10px" fill="#000" opacity="1">jq</text><text text-anchor="end" transform="translate(89.5,7) rotate(315) translate(0,8)" font-family="sans-serif" font-size="10px" fill="#000" opacity="1">janet</text><text text-anchor="end" transform="translate(109.5,7) rotate(315) translate(0,8)" font-family="sans-serif" font-size="10px" fill="#000" opacity="1">perl</text><text text-anchor="end" transform="translate(129.5,7) rotate(315) translate(0,8)" font-family="sans-serif" font-size="10px" fill="#000" opacity="1">woxi</text><text text-anchor="end" transform="translate(149.5,7) rotate(315) translate(0,8)" font-family="sans-serif" font-size="10px" fill="#000" opacity="1">zsh</text><text text-anchor="end" transform="translate(169.5,7) rotate(315) translate(0,8)" font-family="sans-serif" font-size="10px" fill="#000" opacity="1">luau</text><text text-anchor="end" transform="translate(189.5,7) rotate(315) translate(0,8)" font-family="sans-serif" font-size="10px" fill="#000" opacity="1">uiua</text><text text-anchor="end" transform="translate(209.5,7) rotate(315) translate(0,8)" font-family="sans-serif" font-size="10px" fill="#000" opacity="1">rust-script</text><text text-anchor="end" transform="translate(229.5,7) rotate(315) translate(0,8)" font-family="sans-serif" font-size="10px" fill="#000" opacity="1">bash</text><text text-anchor="end" transform="translate(249.5,7) rotate(315) translate(0,8)" font-family="sans-serif" font-size="10px" fill="#000" opacity="1">tclsh</text><text text-anchor="end" transform="translate(269.5,7) rotate(315) translate(0,8)" font-family="sans-serif" font-size="10px" fill="#000" opacity="1">elvish</text><text text-anchor="end" transform="translate(289.5,7) rotate(315) translate(0,8)" font-family="sans-serif" font-size="10px" fill="#000" opacity="1">bun-js</text><text text-anchor="end" transform="translate(309.5,7) rotate(315) translate(0,8)" font-family="sans-serif" font-size="10px" fill="#000" opacity="1">bun-ts</text><text text-anchor="end" transform="translate(329.5,7) rotate(315) translate(0,8)" font-family="sans-serif" font-size="10px" fill="#000" opacity="1">guile</text><text text-anchor="end" transform="translate(349.5,7) rotate(315) translate(0,8)" font-family="sans-serif" font-size="10px" fill="#000" opacity="1">python3</text><text text-anchor="end" transform="translate(369.5,7) rotate(315) translate(0,8)" font-family="sans-serif" font-size="10px" fill="#000" opacity="1">fish</text><text text-anchor="end" transform="translate(389.5,7) rotate(315) translate(0,8)" font-family="sans-serif" font-size="10px" fill="#000" opacity="1">node</text><text text-anchor="end" transform="translate(409.5,7) rotate(315) translate(0,8)" font-family="sans-serif" font-size="10px" fill="#000" opacity="1">deno-js</text><text text-anchor="end" transform="translate(429.5,7) rotate(315) translate(0,8)" font-family="sans-serif" font-size="10px" fill="#000" opacity="1">deno-ts</text><text text-anchor="end" transform="translate(449.5,7) rotate(315) translate(0,8)" font-family="sans-serif" font-size="10px" fill="#000" opacity="1">ocaml</text><text text-anchor="end" transform="translate(469.5,7) rotate(315) translate(0,8)" font-family="sans-serif" font-size="10px" fill="#000" opacity="1">ruby</text><text text-anchor="end" transform="translate(489.5,7) rotate(315) translate(0,8)" font-family="sans-serif" font-size="10px" fill="#000" opacity="1">nu</text><text text-anchor="end" transform="translate(509.5,7) rotate(315) translate(0,8)" font-family="sans-serif" font-size="10px" fill="#000" opacity="1">typst</text><text text-anchor="end" transform="translate(529.5,7) rotate(315) translate(0,8)" font-family="sans-serif" font-size="10px" fill="#000" opacity="1">nix</text><text text-anchor="end" transform="translate(549.5,7) rotate(315) translate(0,8)" font-family="sans-serif" font-size="10px" fill="#000" opacity="1">nim</text><text text-anchor="end" transform="translate(569.5,7) rotate(315) translate(0,8)" font-family="sans-serif" font-size="10px" fill="#000" opacity="1">nickel</text><text text-anchor="end" transform="translate(589.5,7) rotate(315) translate(0,8)" font-family="sans-serif" font-size="10px" fill="#000" opacity="1">php</text><text text-anchor="end" transform="translate(609.5,7) rotate(315) translate(0,8)" font-family="sans-serif" font-size="10px" fill="#000" opacity="1">runhaskell</text><text text-anchor="end" transform="translate(629.5,7) rotate(315) translate(0,8)" font-family="sans-serif" font-size="10px" fill="#000" opacity="1">dart</text><text text-anchor="end" transform="translate(649.5,7) rotate(315) translate(0,8)" font-family="sans-serif" font-size="10px" fill="#000" opacity="1">escript</text><text text-anchor="end" transform="translate(669.5,7) rotate(315) translate(0,8)" font-family="sans-serif" font-size="10px" fill="#000" opacity="1">julia</text><text text-anchor="end" transform="translate(689.5,7) rotate(315) translate(0,8)" font-family="sans-serif" font-size="10px" fill="#000" opacity="1">java</text><text text-anchor="end" transform="translate(709.5,7) rotate(315) translate(0,8)" font-family="sans-serif" font-size="10px" fill="#000" opacity="1">elixir</text><text text-anchor="end" transform="translate(729.5,7) rotate(315) translate(0,8)" font-family="sans-serif" font-size="10px" fill="#000" opacity="1">groovy</text><text text-anchor="end" transform="translate(749.5,7) rotate(315) translate(0,8)" font-family="sans-serif" font-size="10px" fill="#000" opacity="1">fsharp</text><text text-anchor="end" transform="translate(769.5,7) rotate(315) translate(0,8)" font-family="sans-serif" font-size="10px" fill="#000" opacity="1">v</text><text text-anchor="end" transform="translate(789.5,7) rotate(315) translate(0,8)" font-family="sans-serif" font-size="10px" fill="#000" opacity="1">wolframscript</text></g><g class="mark-rule role-axis-domain" pointer-events="none"><line transform="translate(0,0)" x2="800" y2="0" stroke="#888" stroke-width="1" opacity="1"/></g><g class="mark-text role-axis-title" pointer-events="none"><text text-anchor="middle" transform="translate(400,100.61017305526639)" font-family="sans-serif" font-size="11px" font-weight="bold" fill="#000" opacity="1">Command</text></g></g><path class="foreground" aria-hidden="true" d="" pointer-events="none" display="none"/></g></g><g class="mark-group role-axis" role="graphics-symbol" aria-roledescription="axis" aria-label="Y-axis titled 'Relative Speed in Comparison to lua' for a linear scale with values from 0.0 to 1.0"><g transform="translate(0.5,0.5)"><path class="background" aria-hidden="true" d="M0,0h0v0h0Z" pointer-events="none"/><g><g class="mark-rule role-axis-tick" pointer-events="none"><line transform="translate(0,400)" x2="-5" y2="0" stroke="#888" stroke-width="1" opacity="1"/><line transform="translate(0,360)" x2="-5" y2="0" stroke="#888" stroke-width="1" opacity="1"/><line transform="translate(0,320)" x2="-5" y2="0" stroke="#888" stroke-width="1" opacity="1"/><line transform="translate(0,280)" x2="-5" y2="0" stroke="#888" stroke-width="1" opacity="1"/><line transform="translate(0,240)" x2="-5" y2="0" stroke="#888" stroke-width="1" opacity="1"/><line transform="translate(0,200)" x2="-5" y2="0" stroke="#888" stroke-width="1" opacity="1"/><line transform="translate(0,160)" x2="-5" y2="0" stroke="#888" stroke-width="1" opacity="1"/><line transform="translate(0,120)" x2="-5" y2="0" stroke="#888" stroke-width="1" opacity="1"/><line transform="translate(0,80)" x2="-5" y2="0" stroke="#888" stroke-width="1" opacity="1"/><line transform="translate(0,40)" x2="-5" y2="0" stroke="#888" stroke-width="1" opacity="1"/><line transform="translate(0,0)" x2="-5" y2="0" stroke="#888" stroke-width="1" opacity="1"/></g><g class="mark-text role-axis-label" pointer-events="none"><text text-anchor="end" transform="translate(-7,403)" font-family="sans-serif" font-size="10px" fill="#000" opacity="1">0.0</text><text text-anchor="end" transform="translate(-7,363)" font-family="sans-serif" font-size="10px" fill="#000" opacity="1">0.1</text><text text-anchor="end" transform="translate(-7,323)" font-family="sans-serif" font-size="10px" fill="#000" opacity="1">0.2</text><text text-anchor="end" transform="translate(-7,283)" font-family="sans-serif" font-size="10px" fill="#000" opacity="1">0.3</text><text text-anchor="end" transform="translate(-7,243)" font-family="sans-serif" font-size="10px" fill="#000" opacity="1">0.4</text><text text-anchor="end" transform="translate(-7,203)" font-family="sans-serif" font-size="10px" fill="#000" opacity="1">0.5</text><text text-anchor="end" transform="translate(-7,163)" font-family="sans-serif" font-size="10px" fill="#000" opacity="1">0.6</text><text text-anchor="end" transform="translate(-7,123.00000000000001)" font-family="sans-serif" font-size="10px" fill="#000" opacity="1">0.7</text><text text-anchor="end" transform="translate(-7,82.99999999999999)" font-family="sans-serif" font-size="10px" fill="#000" opacity="1">0.8</text><text text-anchor="end" transform="translate(-7,42.99999999999999)" font-family="sans-serif" font-size="10px" fill="#000" opacity="1">0.9</text><text text-anchor="end" transform="translate(-7,3)" font-family="sans-serif" font-size="10px" fill="#000" opacity="1">1.0</text></g><g class="mark-rule role-axis-domain" pointer-events="none"><line transform="translate(0,400)" x2="0" y2="-400" stroke="#888" stroke-width="1" opacity="1"/></g><g class="mark-text role-axis-title" pointer-events="none"><text text-anchor="middle" transform="translate(-35,200) rotate(-90) translate(0,-2)" font-family="sans-serif" font-size="11px" font-weight="bold" fill="#000" opacity="1">Relative Speed in Comparison to lua</text></g></g><path class="foreground" aria-hidden="true" d="" pointer-events="none" display="none"/></g></g><g class="mark-rect role-mark marks" role="graphics-object" aria-roledescription="rect mark container"><path aria-label="Command: lua; Relative Speed in Comparison to lua: 1; command: lua; relative_speed: 1" role="graphics-symbol" aria-roledescription="bar" d="M1,0h18v400h-18Z" fill="#4c78a8"/><path aria-label="Command: luajit; Relative Speed in Comparison to lua: 0.955933636688; command: luajit; relative_speed: 0.9559336366883353" role="graphics-symbol" aria-roledescription="bar" d="M21,17.626545324665877h18v382.37345467533413h-18Z" fill="#4c78a8"/><path aria-label="Command: sqlite; Relative Speed in Comparison to lua: 0.734156023755; command: sqlite; relative_speed: 0.7341560237553773" role="graphics-symbol" aria-roledescription="bar" d="M41,106.3375904978491h18v293.6624095021509h-18Z" fill="#4c78a8"/><path aria-label="Command: jq; Relative Speed in Comparison to lua: 0.646988344957; command: jq; relative_speed: 0.6469883449565346" role="graphics-symbol" aria-roledescription="bar" d="M61,141.20466201738617h18v258.79533798261383h-18Z" fill="#4c78a8"/><path aria-label="Command: janet; Relative Speed in Comparison to lua: 0.4282917735; command: janet; relative_speed: 0.4282917734997456" role="graphics-symbol" aria-roledescription="bar" d="M81,228.68329060010177h18v171.31670939989823h-18Z" fill="#4c78a8"/><path aria-label="Command: perl; Relative Speed in Comparison to lua: 0.420391168719; command: perl; relative_speed: 0.42039116871859294" role="graphics-symbol" aria-roledescription="bar" d="M101,231.84353251256283h18v168.15646748743717h-18Z" fill="#4c78a8"/><path aria-label="Command: woxi; Relative Speed in Comparison to lua: 0.313719314239; command: woxi; relative_speed: 0.31371931423919225" role="graphics-symbol" aria-roledescription="bar" d="M121,274.51227430432306h18v125.48772569567694h-18Z" fill="#4c78a8"/><path aria-label="Command: zsh; Relative Speed in Comparison to lua: 0.291293334676; command: zsh; relative_speed: 0.2912933346760054" role="graphics-symbol" aria-roledescription="bar" d="M141,283.4826661295979h18v116.51733387040213h-18Z" fill="#4c78a8"/><path aria-label="Command: luau; Relative Speed in Comparison to lua: 0.266983436175; command: luau; relative_speed: 0.2669834361748716" role="graphics-symbol" aria-roledescription="bar" d="M161,293.2066255300514h18v106.79337446994862h-18Z" fill="#4c78a8"/><path aria-label="Command: uiua; Relative Speed in Comparison to lua: 0.252871598009; command: uiua; relative_speed: 0.25287159800881803" role="graphics-symbol" aria-roledescription="bar" d="M181,298.85136079647276h18v101.14863920352724h-18Z" fill="#4c78a8"/><path aria-label="Command: rust-script; Relative Speed in Comparison to lua: 0.250104430817; command: rust-script; relative_speed: 0.2501044308168156" role="graphics-symbol" aria-roledescription="bar" d="M201,299.9582276732737h18v100.04177232672629h-18Z" fill="#4c78a8"/><path aria-label="Command: bash; Relative Speed in Comparison to lua: 0.243942269572; command: bash; relative_speed: 0.2439422695715104" role="graphics-symbol" aria-roledescription="bar" d="M221,302.4230921713958h18v97.57690782860419h-18Z" fill="#4c78a8"/><path aria-label="Command: tclsh; Relative Speed in Comparison to lua: 0.216511662428; command: tclsh; relative_speed: 0.2165116624281781" role="graphics-symbol" aria-roledescription="bar" d="M241,313.39533502872877h18v86.60466497127123h-18Z" fill="#4c78a8"/><path aria-label="Command: elvish; Relative Speed in Comparison to lua: 0.210510851431; command: elvish; relative_speed: 0.21051085143110357" role="graphics-symbol" aria-roledescription="bar" d="M261,315.7956594275586h18v84.20434057244142h-18Z" fill="#4c78a8"/><path aria-label="Command: bun-js; Relative Speed in Comparison to lua: 0.168277086086; command: bun-js; relative_speed: 0.16827708608589606" role="graphics-symbol" aria-roledescription="bar" d="M281,332.6891655656416h18v67.31083443435841h-18Z" fill="#4c78a8"/><path aria-label="Command: bun-ts; Relative Speed in Comparison to lua: 0.166362587218; command: bun-ts; relative_speed: 0.16636258721799788" role="graphics-symbol" aria-roledescription="bar" d="M301,333.45496511280083h18v66.54503488719917h-18Z" fill="#4c78a8"/><path aria-label="Command: guile; Relative Speed in Comparison to lua: 0.150082344939; command: guile; relative_speed: 0.15008234493911285" role="graphics-symbol" aria-roledescription="bar" d="M321,339.96706202435485h18v60.032937975645154h-18Z" fill="#4c78a8"/><path aria-label="Command: python3; Relative Speed in Comparison to lua: 0.134671476588; command: python3; relative_speed: 0.13467147658757123" role="graphics-symbol" aria-roledescription="bar" d="M341,346.13140936497155h18v53.868590635028454h-18Z" fill="#4c78a8"/><path aria-label="Command: fish; Relative Speed in Comparison to lua: 0.0964892201216; command: fish; relative_speed: 0.09648922012164268" role="graphics-symbol" aria-roledescription="bar" d="M361,361.4043119513429h18v38.59568804865711h-18Z" fill="#4c78a8"/><path aria-label="Command: node; Relative Speed in Comparison to lua: 0.0927965980936; command: node; relative_speed: 0.09279659809356619" role="graphics-symbol" aria-roledescription="bar" d="M381,362.88136076257354h18v37.118639237426464h-18Z" fill="#4c78a8"/><path aria-label="Command: deno-js; Relative Speed in Comparison to lua: 0.0895076160639; command: deno-js; relative_speed: 0.08950761606393905" role="graphics-symbol" aria-roledescription="bar" d="M401,364.19695357442436h18v35.803046425575644h-18Z" fill="#4c78a8"/><path aria-label="Command: deno-ts; Relative Speed in Comparison to lua: 0.0894084260353; command: deno-ts; relative_speed: 0.08940842603528071" role="graphics-symbol" aria-roledescription="bar" d="M421,364.23662958588767h18v35.76337041411233h-18Z" fill="#4c78a8"/><path aria-label="Command: ocaml; Relative Speed in Comparison to lua: 0.0666392591269; command: ocaml; relative_speed: 0.06663925912687314" role="graphics-symbol" aria-roledescription="bar" d="M441,373.3442963492507h18v26.655703650749274h-18Z" fill="#4c78a8"/><path aria-label="Command: ruby; Relative Speed in Comparison to lua: 0.0530638998152; command: ruby; relative_speed: 0.05306389981516387" role="graphics-symbol" aria-roledescription="bar" d="M461,378.77444007393444h18v21.225559926065557h-18Z" fill="#4c78a8"/><path aria-label="Command: nu; Relative Speed in Comparison to lua: 0.0385590346806; command: nu; relative_speed: 0.0385590346805825" role="graphics-symbol" aria-roledescription="bar" d="M481,384.57638612776697h18v15.423613872233034h-18Z" fill="#4c78a8"/><path aria-label="Command: typst; Relative Speed in Comparison to lua: 0.0364074854648; command: typst; relative_speed: 0.03640748546480791" role="graphics-symbol" aria-roledescription="bar" d="M501,385.4370058140768h18v14.562994185923174h-18Z" fill="#4c78a8"/><path aria-label="Command: nix; Relative Speed in Comparison to lua: 0.0330208861547; command: nix; relative_speed: 0.03302088615474181" role="graphics-symbol" aria-roledescription="bar" d="M521,386.79164553810324h18v13.20835446189676h-18Z" fill="#4c78a8"/><path aria-label="Command: nim; Relative Speed in Comparison to lua: 0.0291107141709; command: nim; relative_speed: 0.029110714170888615" role="graphics-symbol" aria-roledescription="bar" d="M541,388.35571433164455h18v11.644285668355451h-18Z" fill="#4c78a8"/><path aria-label="Command: nickel; Relative Speed in Comparison to lua: 0.02357318653; command: nickel; relative_speed: 0.023573186530017134" role="graphics-symbol" aria-roledescription="bar" d="M561,390.57072538799315h18v9.42927461200685h-18Z" fill="#4c78a8"/><path aria-label="Command: php; Relative Speed in Comparison to lua: 0.0214588846172; command: php; relative_speed: 0.02145888461716814" role="graphics-symbol" aria-roledescription="bar" d="M581,391.4164461531327h18v8.58355384686729h-18Z" fill="#4c78a8"/><path aria-label="Command: runhaskell; Relative Speed in Comparison to lua: 0.0175500919248; command: runhaskell; relative_speed: 0.017550091924813646" role="graphics-symbol" aria-roledescription="bar" d="M601,392.97996323007453h18v7.020036769925468h-18Z" fill="#4c78a8"/><path aria-label="Command: dart; Relative Speed in Comparison to lua: 0.0140498377124; command: dart; relative_speed: 0.014049837712424027" role="graphics-symbol" aria-roledescription="bar" d="M621,394.38006491503035h18v5.619935084969654h-18Z" fill="#4c78a8"/><path aria-label="Command: escript; Relative Speed in Comparison to lua: 0.0120534566094; command: escript; relative_speed: 0.01205345660935195" role="graphics-symbol" aria-roledescription="bar" d="M641,395.1786173562592h18v4.821382643740776h-18Z" fill="#4c78a8"/><path aria-label="Command: julia; Relative Speed in Comparison to lua: 0.00950235513988; command: julia; relative_speed: 0.009502355139881668" role="graphics-symbol" aria-roledescription="bar" d="M661,396.19905794404735h18v3.800942055952646h-18Z" fill="#4c78a8"/><path aria-label="Command: java; Relative Speed in Comparison to lua: 0.0083548630671; command: java; relative_speed: 0.008354863067104444" role="graphics-symbol" aria-roledescription="bar" d="M681,396.65805477315826h18v3.3419452268417444h-18Z" fill="#4c78a8"/><path aria-label="Command: elixir; Relative Speed in Comparison to lua: 0.00827473066688; command: elixir; relative_speed: 0.008274730666876137" role="graphics-symbol" aria-roledescription="bar" d="M701,396.69010773324953h18v3.3098922667504667h-18Z" fill="#4c78a8"/><path aria-label="Command: groovy; Relative Speed in Comparison to lua: 0.0034636271637; command: groovy; relative_speed: 0.0034636271637023203" role="graphics-symbol" aria-roledescription="bar" d="M721,398.61454913451905h18v1.3854508654809479h-18Z" fill="#4c78a8"/><path aria-label="Command: fsharp; Relative Speed in Comparison to lua: 0.00329001124963; command: fsharp; relative_speed: 0.003290011249633504" role="graphics-symbol" aria-roledescription="bar" d="M741,398.68399550014664h18v1.3160044998533635h-18Z" fill="#4c78a8"/><path aria-label="Command: v; Relative Speed in Comparison to lua: 0.00277927244119; command: v; relative_speed: 0.0027792724411873303" role="graphics-symbol" aria-roledescription="bar" d="M761,398.888291023525h18v1.1117089764749721h-18Z" fill="#4c78a8"/><path aria-label="Command: wolframscript; Relative Speed in Comparison to lua: 0.00215124189802; command: wolframscript; relative_speed: 0.0021512418980166436" role="graphics-symbol" aria-roledescription="bar" d="M781,399.1395032407934h18v0.8604967592066259h-18Z" fill="#4c78a8"/></g><g class="mark-group role-title"><g transform="translate(400,-22)"><path class="background" aria-hidden="true" d="M0,0h0v0h0Z" pointer-events="none"/><g><g class="mark-text role-title-text" role="graphics-symbol" aria-roledescription="title" aria-label="Title text 'Bucket Calc - Relative Execution Speed (Higher is Better)'" pointer-events="none"><text text-anchor="middle" transform="translate(0,10)" font-family="sans-serif" font-size="13px" font-weight="bold" fill="#000" opacity="1">Bucket Calc - Relative Execution Speed (Higher is Better)</text></g></g><path class="foreground" aria-hidden="true" d="" pointer-events="none" display="none"/></g></g></g><path class="foreground" aria-hidden="true" d="" display="none"/></g></g></g></svg>