<svg xmlns="http://www.w3.org/2000/svg" xmlns:xlink="http://www.w3.org/1999/xlink" version="1.1" class="marks" width="864" height="724" viewBox="0 0 864 724"><rect width="864" height="724" fill="white"/><g fill="none" stroke-miterlimit="10" transform="translate(59,27)"><g class="mark-group role-frame root" role="graphics-object" aria-roledescription="group mark container"><g transform="translate(0,0)"><path class="background" aria-hidden="true" d="M0.5,0.5h800v600h-800Z" stroke="#ddd"/><g><g class="mark-group role-axis" aria-hidden="true"><g transform="translate(0.5,0.5)"><path class="background" aria-hidden="true" d="M0,0h0v0h0Z" pointer-events="none"/><g><g class="mark-rule role-axis-grid" pointer-events="none"><line transform="translate(0,600)" x2="800" y2="0" stroke="#ddd" stroke-width="1" opacity="1"/><line transform="translate(0,570)" x2="800" y2="0" stroke="#ddd" stroke-width="1" opacity="1"/><line transform="translate(0,540)" x2="800" y2="0" stroke="#ddd" stroke-width="1" opacity="1"/><line transform="translate(0,510)" x2="800" y2="0" stroke="#ddd" stroke-width="1" opacity="1"/><line transform="translate(0,480)" x2="800" y2="0" stroke="#ddd" stroke-width="1" opacity="1"/><line transform="translate(0,450)" x2="800" y2="0" stroke="#ddd" stroke-width="1" opacity="1"/><line transform="translate(0,420)" x2="800" y2="0" stroke="#ddd" stroke-width="1" opacity="1"/><line transform="translate(0,390)" x2="800" y2="0" stroke="#ddd" stroke-width="1" opacity="1"/><line transform="translate(0,360)" x2="800" y2="0" stroke="#ddd" stroke-width="1" opacity="1"/><line transform="translate(0,330)" x2="800" y2="0" stroke="#ddd" stroke-width="1" opacity="1"/><line transform="translate(0,300)" x2="800" y2="0" stroke="#ddd" stroke-width="1" opacity="1"/><line transform="translate(0,270)" x2="800" y2="0" stroke="#ddd" stroke-width="1" opacity="1"/><line transform="translate(0,240)" x2="800" y2="0" stroke="#ddd" stroke-width="1" opacity="1"/><line transform="translate(0,210)" x2="800" y2="0" stroke="#ddd" stroke-width="1" opacity="1"/><line transform="translate(0,180)" x2="800" y2="0" stroke="#ddd" stroke-width="1" opacity="1"/><line transform="translate(0,150)" x2="800" y2="0" stroke="#ddd" stroke-width="1" opacity="1"/><line transform="translate(0,120)" x2="800" y2="0" stroke="#ddd" stroke-width="1" opacity="1"/><line transform="translate(0,90)" x2="800" y2="0" stroke="#ddd" stroke-width="1" opacity="1"/><line transform="translate(0,60)" x2="800" y2="0" stroke="#ddd" stroke-width="1" opacity="1"/><line transform="translate(0,30)" x2="800" y2="0" stroke="#ddd" stroke-width="1" opacity="1"/><line transform="translate(0,0)" x2="800" y2="0" stroke="#ddd" stroke-width="1" opacity="1"/></g></g><path class="foreground" aria-hidden="true" d="" pointer-events="none" display="none"/></g></g><g class="mark-group role-axis" role="graphics-symbol" aria-roledescription="axis" aria-label="X-axis titled 'Command' for a discrete scale with 30 values: luajit, lua, janet, ksh, osh, ending with fsharp.fsx"><g transform="translate(0.5,600.5)"><path class="background" aria-hidden="true" d="M0,0h0v0h0Z" pointer-events="none"/><g><g class="mark-rule role-axis-tick" pointer-events="none"><line transform="translate(13,0)" x2="0" y2="5" stroke="#888" stroke-width="1" opacity="1"/><line transform="translate(39,0)" x2="0" y2="5" stroke="#888" stroke-width="1" opacity="1"/><line transform="translate(66,0)" x2="0" y2="5" stroke="#888" stroke-width="1" opacity="1"/><line transform="translate(93,0)" x2="0" y2="5" stroke="#888" stroke-width="1" opacity="1"/><line transform="translate(119,0)" x2="0" y2="5" stroke="#888" stroke-width="1" opacity="1"/><line transform="translate(146,0)" x2="0" y2="5" stroke="#888" stroke-width="1" opacity="1"/><line transform="translate(173,0)" x2="0" y2="5" stroke="#888" stroke-width="1" opacity="1"/><line transform="translate(200,0)" x2="0" y2="5" stroke="#888" stroke-width="1" opacity="1"/><line transform="translate(226,0)" x2="0" y2="5" stroke="#888" stroke-width="1" opacity="1"/><line transform="translate(253,0)" x2="0" y2="5" stroke="#888" stroke-width="1" opacity="1"/><line transform="translate(280,0)" x2="0" y2="5" stroke="#888" stroke-width="1" opacity="1"/><line transform="translate(306,0)" x2="0" y2="5" stroke="#888" stroke-width="1" opacity="1"/><line transform="translate(333,0)" x2="0" y2="5" stroke="#888" stroke-width="1" opacity="1"/><line transform="translate(360,0)" x2="0" y2="5" stroke="#888" stroke-width="1" opacity="1"/><line transform="translate(386,0)" x2="0" y2="5" stroke="#888" stroke-width="1" opacity="1"/><line transform="translate(413,0)" x2="0" y2="5" stroke="#888" stroke-width="1" opacity="1"/><line transform="translate(440,0)" x2="0" y2="5" stroke="#888" stroke-width="1" opacity="1"/><line transform="translate(466,0)" x2="0" y2="5" stroke="#888" stroke-width="1" opacity="1"/><line transform="translate(493,0)" x2="0" y2="5" stroke="#888" stroke-width="1" opacity="1"/><line transform="translate(520,0)" x2="0" y2="5" stroke="#888" stroke-width="1" opacity="1"/><line transform="translate(546,0)" x2="0" y2="5" stroke="#888" stroke-width="1" opacity="1"/><line transform="translate(573,0)" x2="0" y2="5" stroke="#888" stroke-width="1" opacity="1"/><line transform="translate(600,0)" x2="0" y2="5" stroke="#888" stroke-width="1" opacity="1"/><line transform="translate(626,0)" x2="0" y2="5" stroke="#888" stroke-width="1" opacity="1"/><line transform="translate(653,0)" x2="0" y2="5" stroke="#888" stroke-width="1" opacity="1"/><line transform="translate(680,0)" x2="0" y2="5" stroke="#888" stroke-width="1" opacity="1"/><line transform="translate(706,0)" x2="0" y2="5" stroke="#888" stroke-width="1" opacity="1"/><line transform="translate(733,0)" x2="0" y2="5" stroke="#888" stroke-width="1" opacity="1"/><line transform="translate(760,0)" x2="0" y2="5" stroke="#888" stroke-width="1" opacity="1"/><line transform="translate(786,0)" x2="0" y2="5" stroke="#888" stroke-width="1" opacity="1"/></g><g class="mark-text role-axis-label" pointer-events="none"><text text-anchor="end" transform="translate(12.833333333333314,7) rotate(315) translate(0,8)" font-family="sans-serif" font-size="10px" fill="#000" opacity="1">luajit</text><text text-anchor="end" transform="translate(39.499999999999986,7) rotate(315) translate(0,8)" font-family="sans-serif" font-size="10px" fill="#000" opacity="1">lua</text><text text-anchor="end" transform="translate(66.16666666666666,7) rotate(315) translate(0,8)" font-family="sans-serif" font-size="10px" fill="#000" opacity="1">janet</text><text text-anchor="end" transform="translate(92.83333333333331,7) rotate(315) translate(0,8)" font-family="sans-serif" font-size="10px" fill="#000" opacity="1">ksh</text><text text-anchor="end" transform="translate(119.49999999999999,7) rotate(315) translate(0,8)" font-family="sans-serif" font-size="10px" fill="#000" opacity="1">osh</text><text text-anchor="end" transform="translate(146.16666666666666,7) rotate(315) translate(0,8)" font-family="sans-serif" font-size="10px" fill="#000" opacity="1">dash</text><text text-anchor="end" transform="translate(172.83333333333331,7) rotate(315) translate(0,8)" font-family="sans-serif" font-size="10px" fill="#000" opacity="1">bash</text><text text-anchor="end" transform="translate(199.5,7) rotate(315) translate(0,8)" font-family="sans-serif" font-size="10px" fill="#000" opacity="1">rust-script</text><text text-anchor="end" transform="translate(226.16666666666666,7) rotate(315) translate(0,8)" font-family="sans-serif" font-size="10px" fill="#000" opacity="1">v.vsh</text><text text-anchor="end" transform="translate(252.83333333333331,7) rotate(315) translate(0,8)" font-family="sans-serif" font-size="10px" fill="#000" opacity="1">fish</text><text text-anchor="end" transform="translate(279.5,7) rotate(315) translate(0,8)" font-family="sans-serif" font-size="10px" fill="#000" opacity="1">elvish</text><text text-anchor="end" transform="translate(306.1666666666667,7) rotate(315) translate(0,8)" font-family="sans-serif" font-size="10px" fill="#000" opacity="1">guile</text><text text-anchor="end" transform="translate(332.8333333333333,7) rotate(315) translate(0,8)" font-family="sans-serif" font-size="10px" fill="#000" opacity="1">bun</text><text text-anchor="end" transform="translate(359.5,7) rotate(315) translate(0,8)" font-family="sans-serif" font-size="10px" fill="#000" opacity="1">d.d</text><text text-anchor="end" transform="translate(386.1666666666667,7) rotate(315) translate(0,8)" font-family="sans-serif" font-size="10px" fill="#000" opacity="1">python</text><text text-anchor="end" transform="translate(412.8333333333333,7) rotate(315) translate(0,8)" font-family="sans-serif" font-size="10px" fill="#000" opacity="1">nushell</text><text text-anchor="end" transform="translate(439.5,7) rotate(315) translate(0,8)" font-family="sans-serif" font-size="10px" fill="#000" opacity="1">ocaml</text><text text-anchor="end" transform="translate(466.1666666666667,7) rotate(315) translate(0,8)" font-family="sans-serif" font-size="10px" fill="#000" opacity="1">php</text><text text-anchor="end" transform="translate(492.8333333333333,7) rotate(315) translate(0,8)" font-family="sans-serif" font-size="10px" fill="#000" opacity="1">ruby</text><text text-anchor="end" transform="translate(519.5,7) rotate(315) translate(0,8)" font-family="sans-serif" font-size="10px" fill="#000" opacity="1">racket</text><text text-anchor="end" transform="translate(546.1666666666667,7) rotate(315) translate(0,8)" font-family="sans-serif" font-size="10px" fill="#000" opacity="1">perl</text><text text-anchor="end" transform="translate(572.8333333333333,7) rotate(315) translate(0,8)" font-family="sans-serif" font-size="10px" fill="#000" opacity="1">r</text><text text-anchor="end" transform="translate(599.5,7) rotate(315) translate(0,8)" font-family="sans-serif" font-size="10px" fill="#000" opacity="1">dart</text><text text-anchor="end" transform="translate(626.1666666666667,7) rotate(315) translate(0,8)" font-family="sans-serif" font-size="10px" fill="#000" opacity="1">swift</text><text text-anchor="end" transform="translate(652.8333333333333,7) rotate(315) translate(0,8)" font-family="sans-serif" font-size="10px" fill="#000" opacity="1">julia</text><text text-anchor="end" transform="translate(679.5,7) rotate(315) translate(0,8)" font-family="sans-serif" font-size="10px" fill="#000" opacity="1">elixir</text><text text-anchor="end" transform="translate(706.1666666666667,7) rotate(315) translate(0,8)" font-family="sans-serif" font-size="10px" fill="#000" opacity="1">java</text><text text-anchor="end" transform="translate(732.8333333333333,7) rotate(315) translate(0,8)" font-family="sans-serif" font-size="10px" fill="#000" opacity="1">scala</text><text text-anchor="end" transform="translate(759.5,7) rotate(315) translate(0,8)" font-family="sans-serif" font-size="10px" fill="#000" opacity="1">haskell</text><text text-anchor="end" transform="translate(786.1666666666667,7) rotate(315) translate(0,8)" font-family="sans-serif" font-size="10px" fill="#000" opacity="1">fsharp.fsx</text></g><g class="mark-rule role-axis-domain" pointer-events="none"><line transform="translate(0,0)" x2="800" y2="0" stroke="#888" stroke-width="1" opacity="1"/></g><g class="mark-text role-axis-title" pointer-events="none"><text text-anchor="middle" transform="translate(400,89.29646455628166)" font-family="sans-serif" font-size="11px" font-weight="bold" fill="#000" opacity="1">Command</text></g></g><path class="foreground" aria-hidden="true" d="" pointer-events="none" display="none"/></g></g><g class="mark-group role-axis" role="graphics-symbol" aria-roledescription="axis" aria-label="Y-axis titled 'Relative Speed in Comparison to luajit' for a linear scale with values from 0.0 to 1.0"><g transform="translate(0.5,0.5)"><path class="background" aria-hidden="true" d="M0,0h0v0h0Z" pointer-events="none"/><g><g class="mark-rule role-axis-tick" pointer-events="none"><line transform="translate(0,600)" x2="-5" y2="0" stroke="#888" stroke-width="1" opacity="1"/><line transform="translate(0,570)" x2="-5" y2="0" stroke="#888" stroke-width="1" opacity="1"/><line transform="translate(0,540)" x2="-5" y2="0" stroke="#888" stroke-width="1" opacity="1"/><line transform="translate(0,510)" x2="-5" y2="0" stroke="#888" stroke-width="1" opacity="1"/><line transform="translate(0,480)" x2="-5" y2="0" stroke="#888" stroke-width="1" opacity="1"/><line transform="translate(0,450)" x2="-5" y2="0" stroke="#888" stroke-width="1" opacity="1"/><line transform="translate(0,420)" x2="-5" y2="0" stroke="#888" stroke-width="1" opacity="1"/><line transform="translate(0,390)" x2="-5" y2="0" stroke="#888" stroke-width="1" opacity="1"/><line transform="translate(0,360)" x2="-5" y2="0" stroke="#888" stroke-width="1" opacity="1"/><line transform="translate(0,330)" x2="-5" y2="0" stroke="#888" stroke-width="1" opacity="1"/><line transform="translate(0,300)" x2="-5" y2="0" stroke="#888" stroke-width="1" opacity="1"/><line transform="translate(0,270)" x2="-5" y2="0" stroke="#888" stroke-width="1" opacity="1"/><line transform="translate(0,240)" x2="-5" y2="0" stroke="#888" stroke-width="1" opacity="1"/><line transform="translate(0,210)" x2="-5" y2="0" stroke="#888" stroke-width="1" opacity="1"/><line transform="translate(0,180)" x2="-5" y2="0" stroke="#888" stroke-width="1" opacity="1"/><line transform="translate(0,150)" x2="-5" y2="0" stroke="#888" stroke-width="1" opacity="1"/><line transform="translate(0,120)" x2="-5" y2="0" stroke="#888" stroke-width="1" opacity="1"/><line transform="translate(0,90)" x2="-5" y2="0" stroke="#888" stroke-width="1" opacity="1"/><line transform="translate(0,60)" x2="-5" y2="0" stroke="#888" stroke-width="1" opacity="1"/><line transform="translate(0,30)" x2="-5" y2="0" stroke="#888" stroke-width="1" opacity="1"/><line transform="translate(0,0)" x2="-5" y2="0" stroke="#888" stroke-width="1" opacity="1"/></g><g class="mark-text role-axis-label" pointer-events="none"><text text-anchor="end" transform="translate(-7,603)" font-family="sans-serif" font-size="10px" fill="#000" opacity="1">0.00</text><text text-anchor="end" transform="translate(-7,573)" font-family="sans-serif" font-size="10px" fill="#000" opacity="1">0.05</text><text text-anchor="end" transform="translate(-7,543)" font-family="sans-serif" font-size="10px" fill="#000" opacity="1">0.10</text><text text-anchor="end" transform="translate(-7,513)" font-family="sans-serif" font-size="10px" fill="#000" opacity="1">0.15</text><text text-anchor="end" transform="translate(-7,483)" font-family="sans-serif" font-size="10px" fill="#000" opacity="1">0.20</text><text text-anchor="end" transform="translate(-7,453)" font-family="sans-serif" font-size="10px" fill="#000" opacity="1">0.25</text><text text-anchor="end" transform="translate(-7,423)" font-family="sans-serif" font-size="10px" fill="#000" opacity="1">0.30</text><text text-anchor="end" transform="translate(-7,393)" font-family="sans-serif" font-size="10px" fill="#000" opacity="1">0.35</text><text text-anchor="end" transform="translate(-7,363)" font-family="sans-serif" font-size="10px" fill="#000" opacity="1">0.40</text><text text-anchor="end" transform="translate(-7,333)" font-family="sans-serif" font-size="10px" fill="#000" opacity="1">0.45</text><text text-anchor="end" transform="translate(-7,303)" font-family="sans-serif" font-size="10px" fill="#000" opacity="1">0.50</text><text text-anchor="end" transform="translate(-7,273)" font-family="sans-serif" font-size="10px" fill="#000" opacity="1">0.55</text><text text-anchor="end" transform="translate(-7,243)" font-family="sans-serif" font-size="10px" fill="#000" opacity="1">0.60</text><text text-anchor="end" transform="translate(-7,213)" font-family="sans-serif" font-size="10px" fill="#000" opacity="1">0.65</text><text text-anchor="end" transform="translate(-7,183.00000000000003)" font-family="sans-serif" font-size="10px" fill="#000" opacity="1">0.70</text><text text-anchor="end" transform="translate(-7,153)" font-family="sans-serif" font-size="10px" fill="#000" opacity="1">0.75</text><text text-anchor="end" transform="translate(-7,122.99999999999997)" font-family="sans-serif" font-size="10px" fill="#000" opacity="1">0.80</text><text text-anchor="end" transform="translate(-7,93.00000000000001)" font-family="sans-serif" font-size="10px" fill="#000" opacity="1">0.85</text><text text-anchor="end" transform="translate(-7,62.999999999999986)" font-family="sans-serif" font-size="10px" fill="#000" opacity="1">0.90</text><text text-anchor="end" transform="translate(-7,33.00000000000003)" font-family="sans-serif" font-size="10px" fill="#000" opacity="1">0.95</text><text text-anchor="end" transform="translate(-7,3)" font-family="sans-serif" font-size="10px" fill="#000" opacity="1">1.00</text></g><g class="mark-rule role-axis-domain" pointer-events="none"><line transform="translate(0,600)" x2="0" y2="-600" stroke="#888" stroke-width="1" opacity="1"/></g><g class="mark-text role-axis-title" pointer-events="none"><text text-anchor="middle" transform="translate(-43,300) rotate(-90) translate(0,-2)" font-family="sans-serif" font-size="11px" font-weight="bold" fill="#000" opacity="1">Relative Speed in Comparison to luajit</text></g></g><path class="foreground" aria-hidden="true" d="" pointer-events="none" display="none"/></g></g><g class="mark-rect role-mark marks" role="graphics-object" aria-roledescription="rect mark container"><path aria-label="Command: luajit; Relative Speed in Comparison to luajit: 1; command: luajit; relative_speed: 1" role="graphics-symbol" aria-roledescription="bar" d="M1.3333333333333144,0h24v600h-24Z" fill="#4c78a8"/><path aria-label="Command: lua; Relative Speed in Comparison to luajit: 0.955584430936; command: lua; relative_speed: 0.9555844309355062" role="graphics-symbol" aria-roledescription="bar" d="M27.999999999999982,26.649341438696304h24v573.3506585613037h-24Z" fill="#4c78a8"/><path aria-label="Command: janet; Relative Speed in Comparison to luajit: 0.478591026313; command: janet; relative_speed: 0.47859102631263395" role="graphics-symbol" aria-roledescription="bar" d="M54.66666666666665,312.8453842124196h24v287.1546157875804h-24Z" fill="#4c78a8"/><path aria-label="Command: ksh; Relative Speed in Comparison to luajit: 0.463851993521; command: ksh; relative_speed: 0.4638519935209458" role="graphics-symbol" aria-roledescription="bar" d="M81.33333333333331,321.6888038874325h24v278.3111961125675h-24Z" fill="#4c78a8"/><path aria-label="Command: osh; Relative Speed in Comparison to luajit: 0.372213577254; command: osh; relative_speed: 0.37221357725421866" role="graphics-symbol" aria-roledescription="bar" d="M107.99999999999999,376.6718536474688h24v223.32814635253118h-24Z" fill="#4c78a8"/><path aria-label="Command: dash; Relative Speed in Comparison to luajit: 0.370881522624; command: dash; relative_speed: 0.370881522624159" role="graphics-symbol" aria-roledescription="bar" d="M134.66666666666666,377.47108642550455h24v222.52891357449545h-24Z" fill="#4c78a8"/><path aria-label="Command: bash; Relative Speed in Comparison to luajit: 0.358897504556; command: bash; relative_speed: 0.3588975045564953" role="graphics-symbol" aria-roledescription="bar" d="M161.33333333333331,384.66149726610286h24v215.33850273389714h-24Z" fill="#4c78a8"/><path aria-label="Command: rust-script; Relative Speed in Comparison to luajit: 0.280182421883; command: rust-script; relative_speed: 0.28018242188278286" role="graphics-symbol" aria-roledescription="bar" d="M188,431.8905468703303h24v168.1094531296697h-24Z" fill="#4c78a8"/><path aria-label="Command: v.vsh; Relative Speed in Comparison to luajit: 0.260312741956; command: v.vsh; relative_speed: 0.26031274195622667" role="graphics-symbol" aria-roledescription="bar" d="M214.66666666666666,443.812354826264h24v156.18764517373597h-24Z" fill="#4c78a8"/><path aria-label="Command: fish; Relative Speed in Comparison to luajit: 0.19887957965; command: fish; relative_speed: 0.19887957964955416" role="graphics-symbol" aria-roledescription="bar" d="M241.33333333333331,480.6722522102675h24v119.32774778973248h-24Z" fill="#4c78a8"/><path aria-label="Command: elvish; Relative Speed in Comparison to luajit: 0.189377347689; command: elvish; relative_speed: 0.18937734768887385" role="graphics-symbol" aria-roledescription="bar" d="M268,486.3735913866757h24v113.62640861332432h-24Z" fill="#4c78a8"/><path aria-label="Command: guile; Relative Speed in Comparison to luajit: 0.103421970023; command: guile; relative_speed: 0.10342197002256938" role="graphics-symbol" aria-roledescription="bar" d="M294.6666666666667,537.9468179864584h24v62.05318201354157h-24Z" fill="#4c78a8"/><path aria-label="Command: bun; Relative Speed in Comparison to luajit: 0.0999063018747; command: bun; relative_speed: 0.09990630187471781" role="graphics-symbol" aria-roledescription="bar" d="M321.3333333333333,540.0562188751693h24v59.94378112483071h-24Z" fill="#4c78a8"/><path aria-label="Command: d.d; Relative Speed in Comparison to luajit: 0.0762086145426; command: d.d; relative_speed: 0.07620861454256861" role="graphics-symbol" aria-roledescription="bar" d="M348,554.2748312744588h24v45.72516872554115h-24Z" fill="#4c78a8"/><path aria-label="Command: python; Relative Speed in Comparison to luajit: 0.0705707940479; command: python; relative_speed: 0.07057079404785072" role="graphics-symbol" aria-roledescription="bar" d="M374.6666666666667,557.6575235712895h24v42.342476428710484h-24Z" fill="#4c78a8"/><path aria-label="Command: nushell; Relative Speed in Comparison to luajit: 0.0546291663547; command: nushell; relative_speed: 0.054629166354704876" role="graphics-symbol" aria-roledescription="bar" d="M401.3333333333333,567.222500187177h24v32.77749981282295h-24Z" fill="#4c78a8"/><path aria-label="Command: ocaml; Relative Speed in Comparison to luajit: 0.0507811464599; command: ocaml; relative_speed: 0.050781146459891374" role="graphics-symbol" aria-roledescription="bar" d="M428,569.5313121240652h24v30.468687875934847h-24Z" fill="#4c78a8"/><path aria-label="Command: php; Relative Speed in Comparison to luajit: 0.0333418768494; command: php; relative_speed: 0.03334187684942997" role="graphics-symbol" aria-roledescription="bar" d="M454.6666666666667,579.994873890342h24v20.005126109658022h-24Z" fill="#4c78a8"/><path aria-label="Command: ruby; Relative Speed in Comparison to luajit: 0.0285683000573; command: ruby; relative_speed: 0.02856830005731651" role="graphics-symbol" aria-roledescription="bar" d="M481.3333333333333,582.8590199656101h24v17.14098003438994h-24Z" fill="#4c78a8"/><path aria-label="Command: racket; Relative Speed in Comparison to luajit: 0.0218549726415; command: racket; relative_speed: 0.02185497264152427" role="graphics-symbol" aria-roledescription="bar" d="M508,586.8870164150854h24v13.11298358491456h-24Z" fill="#4c78a8"/><path aria-label="Command: perl; Relative Speed in Comparison to luajit: 0.0210653988465; command: perl; relative_speed: 0.02106539884648515" role="graphics-symbol" aria-roledescription="bar" d="M534.6666666666667,587.3607606921089h24v12.639239307891103h-24Z" fill="#4c78a8"/><path aria-label="Command: r; Relative Speed in Comparison to luajit: 0.0144398960585; command: r; relative_speed: 0.014439896058517995" role="graphics-symbol" aria-roledescription="bar" d="M561.3333333333333,591.3360623648891h24v8.66393763511087h-24Z" fill="#4c78a8"/><path aria-label="Command: dart; Relative Speed in Comparison to luajit: 0.0111015728127; command: dart; relative_speed: 0.011101572812683255" role="graphics-symbol" aria-roledescription="bar" d="M588,593.3390563123901h24v6.660943687609915h-24Z" fill="#4c78a8"/><path aria-label="Command: swift; Relative Speed in Comparison to luajit: 0.00746329552683; command: swift; relative_speed: 0.007463295526825068" role="graphics-symbol" aria-roledescription="bar" d="M614.6666666666667,595.5220226839049h24v4.477977316095121h-24Z" fill="#4c78a8"/><path aria-label="Command: julia; Relative Speed in Comparison to luajit: 0.00632579390909; command: julia; relative_speed: 0.006325793909094993" role="graphics-symbol" aria-roledescription="bar" d="M641.3333333333333,596.204523654543h24v3.7954763454570184h-24Z" fill="#4c78a8"/><path aria-label="Command: elixir; Relative Speed in Comparison to luajit: 0.0047967453501; command: elixir; relative_speed: 0.0047967453501031035" role="graphics-symbol" aria-roledescription="bar" d="M668,597.1219527899382h24v2.8780472100618226h-24Z" fill="#4c78a8"/><path aria-label="Command: java; Relative Speed in Comparison to luajit: 0.00405380201234; command: java; relative_speed: 0.004053802012338284" role="graphics-symbol" aria-roledescription="bar" d="M694.6666666666667,597.567718792597h24v2.43228120740298h-24Z" fill="#4c78a8"/><path aria-label="Command: scala; Relative Speed in Comparison to luajit: 0.00221347110585; command: scala; relative_speed: 0.002213471105848118" role="graphics-symbol" aria-roledescription="bar" d="M721.3333333333333,598.6719173364911h24v1.3280826635088943h-24Z" fill="#4c78a8"/><path aria-label="Command: haskell; Relative Speed in Comparison to luajit: 0.00208062140175; command: haskell; relative_speed: 0.0020806214017486994" role="graphics-symbol" aria-roledescription="bar" d="M748,598.7516271589508h24v1.2483728410492176h-24Z" fill="#4c78a8"/><path aria-label="Command: fsharp.fsx; Relative Speed in Comparison to luajit: 0.00197844801563; command: fsharp.fsx; relative_speed: 0.0019784480156305744" role="graphics-symbol" aria-roledescription="bar" d="M774.6666666666667,598.8129311906216h24v1.1870688093783883h-24Z" fill="#4c78a8"/></g><g class="mark-group role-title"><g transform="translate(400,-22)"><path class="background" aria-hidden="true" d="M0,0h0v0h0Z" pointer-events="none"/><g><g class="mark-text role-title-text" role="graphics-symbol" aria-roledescription="title" aria-label="Title text 'Relative Execution Speed (Higher is Better)'" pointer-events="none"><text text-anchor="middle" transform="translate(0,10)" font-family="sans-serif" font-size="13px" font-weight="bold" fill="#000" opacity="1">Relative Execution Speed (Higher is Better)</text></g></g><path class="foreground" aria-hidden="true" d="" pointer-events="none" display="none"/></g></g></g><path class="foreground" aria-hidden="true" d="" display="none"/></g></g></g></svg>