<svg xmlns="http://www.w3.org/2000/svg" xmlns:xlink="http://www.w3.org/1999/xlink" version="1.1" class="marks" width="864" height="724" viewBox="0 0 864 724"><rect width="864" height="724" fill="white"/><g fill="none" stroke-miterlimit="10" transform="translate(59,27)"><g class="mark-group role-frame root" role="graphics-object" aria-roledescription="group mark container"><g transform="translate(0,0)"><path class="background" aria-hidden="true" d="M0.5,0.5h800v600h-800Z" stroke="#ddd"/><g><g class="mark-group role-axis" aria-hidden="true"><g transform="translate(0.5,0.5)"><path class="background" aria-hidden="true" d="M0,0h0v0h0Z" pointer-events="none"/><g><g class="mark-rule role-axis-grid" pointer-events="none"><line transform="translate(0,600)" x2="800" y2="0" stroke="#ddd" stroke-width="1" opacity="1"/><line transform="translate(0,570)" x2="800" y2="0" stroke="#ddd" stroke-width="1" opacity="1"/><line transform="translate(0,540)" x2="800" y2="0" stroke="#ddd" stroke-width="1" opacity="1"/><line transform="translate(0,510)" x2="800" y2="0" stroke="#ddd" stroke-width="1" opacity="1"/><line transform="translate(0,480)" x2="800" y2="0" stroke="#ddd" stroke-width="1" opacity="1"/><line transform="translate(0,450)" x2="800" y2="0" stroke="#ddd" stroke-width="1" opacity="1"/><line transform="translate(0,420)" x2="800" y2="0" stroke="#ddd" stroke-width="1" opacity="1"/><line transform="translate(0,390)" x2="800" y2="0" stroke="#ddd" stroke-width="1" opacity="1"/><line transform="translate(0,360)" x2="800" y2="0" stroke="#ddd" stroke-width="1" opacity="1"/><line transform="translate(0,330)" x2="800" y2="0" stroke="#ddd" stroke-width="1" opacity="1"/><line transform="translate(0,300)" x2="800" y2="0" stroke="#ddd" stroke-width="1" opacity="1"/><line transform="translate(0,270)" x2="800" y2="0" stroke="#ddd" stroke-width="1" opacity="1"/><line transform="translate(0,240)" x2="800" y2="0" stroke="#ddd" stroke-width="1" opacity="1"/><line transform="translate(0,210)" x2="800" y2="0" stroke="#ddd" stroke-width="1" opacity="1"/><line transform="translate(0,180)" x2="800" y2="0" stroke="#ddd" stroke-width="1" opacity="1"/><line transform="translate(0,150)" x2="800" y2="0" stroke="#ddd" stroke-width="1" opacity="1"/><line transform="translate(0,120)" x2="800" y2="0" stroke="#ddd" stroke-width="1" opacity="1"/><line transform="translate(0,90)" x2="800" y2="0" stroke="#ddd" stroke-width="1" opacity="1"/><line transform="translate(0,60)" x2="800" y2="0" stroke="#ddd" stroke-width="1" opacity="1"/><line transform="translate(0,30)" x2="800" y2="0" stroke="#ddd" stroke-width="1" opacity="1"/><line transform="translate(0,0)" x2="800" y2="0" stroke="#ddd" stroke-width="1" opacity="1"/></g></g><path class="foreground" aria-hidden="true" d="" pointer-events="none" display="none"/></g></g><g class="mark-group role-axis" role="graphics-symbol" aria-roledescription="axis" aria-label="X-axis titled 'Command' for a discrete scale with 30 values: luajit, lua, dash, ksh, janet, ending with fsharp.fsx"><g transform="translate(0.5,600.5)"><path class="background" aria-hidden="true" d="M0,0h0v0h0Z" pointer-events="none"/><g><g class="mark-rule role-axis-tick" pointer-events="none"><line transform="translate(13,0)" x2="0" y2="5" stroke="#888" stroke-width="1" opacity="1"/><line transform="translate(39,0)" x2="0" y2="5" stroke="#888" stroke-width="1" opacity="1"/><line transform="translate(66,0)" x2="0" y2="5" stroke="#888" stroke-width="1" opacity="1"/><line transform="translate(93,0)" x2="0" y2="5" stroke="#888" stroke-width="1" opacity="1"/><line transform="translate(119,0)" x2="0" y2="5" stroke="#888" stroke-width="1" opacity="1"/><line transform="translate(146,0)" x2="0" y2="5" stroke="#888" stroke-width="1" opacity="1"/><line transform="translate(173,0)" x2="0" y2="5" stroke="#888" stroke-width="1" opacity="1"/><line transform="translate(200,0)" x2="0" y2="5" stroke="#888" stroke-width="1" opacity="1"/><line transform="translate(226,0)" x2="0" y2="5" stroke="#888" stroke-width="1" opacity="1"/><line transform="translate(253,0)" x2="0" y2="5" stroke="#888" stroke-width="1" opacity="1"/><line transform="translate(280,0)" x2="0" y2="5" stroke="#888" stroke-width="1" opacity="1"/><line transform="translate(306,0)" x2="0" y2="5" stroke="#888" stroke-width="1" opacity="1"/><line transform="translate(333,0)" x2="0" y2="5" stroke="#888" stroke-width="1" opacity="1"/><line transform="translate(360,0)" x2="0" y2="5" stroke="#888" stroke-width="1" opacity="1"/><line transform="translate(386,0)" x2="0" y2="5" stroke="#888" stroke-width="1" opacity="1"/><line transform="translate(413,0)" x2="0" y2="5" stroke="#888" stroke-width="1" opacity="1"/><line transform="translate(440,0)" x2="0" y2="5" stroke="#888" stroke-width="1" opacity="1"/><line transform="translate(466,0)" x2="0" y2="5" stroke="#888" stroke-width="1" opacity="1"/><line transform="translate(493,0)" x2="0" y2="5" stroke="#888" stroke-width="1" opacity="1"/><line transform="translate(520,0)" x2="0" y2="5" stroke="#888" stroke-width="1" opacity="1"/><line transform="translate(546,0)" x2="0" y2="5" stroke="#888" stroke-width="1" opacity="1"/><line transform="translate(573,0)" x2="0" y2="5" stroke="#888" stroke-width="1" opacity="1"/><line transform="translate(600,0)" x2="0" y2="5" stroke="#888" stroke-width="1" opacity="1"/><line transform="translate(626,0)" x2="0" y2="5" stroke="#888" stroke-width="1" opacity="1"/><line transform="translate(653,0)" x2="0" y2="5" stroke="#888" stroke-width="1" opacity="1"/><line transform="translate(680,0)" x2="0" y2="5" stroke="#888" stroke-width="1" opacity="1"/><line transform="translate(706,0)" x2="0" y2="5" stroke="#888" stroke-width="1" opacity="1"/><line transform="translate(733,0)" x2="0" y2="5" stroke="#888" stroke-width="1" opacity="1"/><line transform="translate(760,0)" x2="0" y2="5" stroke="#888" stroke-width="1" opacity="1"/><line transform="translate(786,0)" x2="0" y2="5" stroke="#888" stroke-width="1" opacity="1"/></g><g class="mark-text role-axis-label" pointer-events="none"><text text-anchor="end" transform="translate(12.833333333333314,7) rotate(315) translate(0,8)" font-family="sans-serif" font-size="10px" fill="#000" opacity="1">luajit</text><text text-anchor="end" transform="translate(39.499999999999986,7) rotate(315) translate(0,8)" font-family="sans-serif" font-size="10px" fill="#000" opacity="1">lua</text><text text-anchor="end" transform="translate(66.16666666666666,7) rotate(315) translate(0,8)" font-family="sans-serif" font-size="10px" fill="#000" opacity="1">dash</text><text text-anchor="end" transform="translate(92.83333333333331,7) rotate(315) translate(0,8)" font-family="sans-serif" font-size="10px" fill="#000" opacity="1">ksh</text><text text-anchor="end" transform="translate(119.49999999999999,7) rotate(315) translate(0,8)" font-family="sans-serif" font-size="10px" fill="#000" opacity="1">janet</text><text text-anchor="end" transform="translate(146.16666666666666,7) rotate(315) translate(0,8)" font-family="sans-serif" font-size="10px" fill="#000" opacity="1">bash</text><text text-anchor="end" transform="translate(172.83333333333331,7) rotate(315) translate(0,8)" font-family="sans-serif" font-size="10px" fill="#000" opacity="1">osh</text><text text-anchor="end" transform="translate(199.5,7) rotate(315) translate(0,8)" font-family="sans-serif" font-size="10px" fill="#000" opacity="1">rust-script</text><text text-anchor="end" transform="translate(226.16666666666666,7) rotate(315) translate(0,8)" font-family="sans-serif" font-size="10px" fill="#000" opacity="1">v.vsh</text><text text-anchor="end" transform="translate(252.83333333333331,7) rotate(315) translate(0,8)" font-family="sans-serif" font-size="10px" fill="#000" opacity="1">elvish</text><text text-anchor="end" transform="translate(279.5,7) rotate(315) translate(0,8)" font-family="sans-serif" font-size="10px" fill="#000" opacity="1">fish</text><text text-anchor="end" transform="translate(306.1666666666667,7) rotate(315) translate(0,8)" font-family="sans-serif" font-size="10px" fill="#000" opacity="1">d.d</text><text text-anchor="end" transform="translate(332.8333333333333,7) rotate(315) translate(0,8)" font-family="sans-serif" font-size="10px" fill="#000" opacity="1">bun</text><text text-anchor="end" transform="translate(359.5,7) rotate(315) translate(0,8)" font-family="sans-serif" font-size="10px" fill="#000" opacity="1">guile</text><text text-anchor="end" transform="translate(386.1666666666667,7) rotate(315) translate(0,8)" font-family="sans-serif" font-size="10px" fill="#000" opacity="1">python</text><text text-anchor="end" transform="translate(412.8333333333333,7) rotate(315) translate(0,8)" font-family="sans-serif" font-size="10px" fill="#000" opacity="1">nushell</text><text text-anchor="end" transform="translate(439.5,7) rotate(315) translate(0,8)" font-family="sans-serif" font-size="10px" fill="#000" opacity="1">ocaml</text><text text-anchor="end" transform="translate(466.1666666666667,7) rotate(315) translate(0,8)" font-family="sans-serif" font-size="10px" fill="#000" opacity="1">php</text><text text-anchor="end" transform="translate(492.8333333333333,7) rotate(315) translate(0,8)" font-family="sans-serif" font-size="10px" fill="#000" opacity="1">ruby</text><text text-anchor="end" transform="translate(519.5,7) rotate(315) translate(0,8)" font-family="sans-serif" font-size="10px" fill="#000" opacity="1">racket</text><text text-anchor="end" transform="translate(546.1666666666667,7) rotate(315) translate(0,8)" font-family="sans-serif" font-size="10px" fill="#000" opacity="1">perl</text><text text-anchor="end" transform="translate(572.8333333333333,7) rotate(315) translate(0,8)" font-family="sans-serif" font-size="10px" fill="#000" opacity="1">r</text><text text-anchor="end" transform="translate(599.5,7) rotate(315) translate(0,8)" font-family="sans-serif" font-size="10px" fill="#000" opacity="1">dart</text><text text-anchor="end" transform="translate(626.1666666666667,7) rotate(315) translate(0,8)" font-family="sans-serif" font-size="10px" fill="#000" opacity="1">swift</text><text text-anchor="end" transform="translate(652.8333333333333,7) rotate(315) translate(0,8)" font-family="sans-serif" font-size="10px" fill="#000" opacity="1">elixir</text><text text-anchor="end" transform="translate(679.5,7) rotate(315) translate(0,8)" font-family="sans-serif" font-size="10px" fill="#000" opacity="1">julia</text><text text-anchor="end" transform="translate(706.1666666666667,7) rotate(315) translate(0,8)" font-family="sans-serif" font-size="10px" fill="#000" opacity="1">java</text><text text-anchor="end" transform="translate(732.8333333333333,7) rotate(315) translate(0,8)" font-family="sans-serif" font-size="10px" fill="#000" opacity="1">scala</text><text text-anchor="end" transform="translate(759.5,7) rotate(315) translate(0,8)" font-family="sans-serif" font-size="10px" fill="#000" opacity="1">haskell</text><text text-anchor="end" transform="translate(786.1666666666667,7) rotate(315) translate(0,8)" font-family="sans-serif" font-size="10px" fill="#000" opacity="1">fsharp.fsx</text></g><g class="mark-rule role-axis-domain" pointer-events="none"><line transform="translate(0,0)" x2="800" y2="0" stroke="#888" stroke-width="1" opacity="1"/></g><g class="mark-text role-axis-title" pointer-events="none"><text text-anchor="middle" transform="translate(400,89.29646455628166)" font-family="sans-serif" font-size="11px" font-weight="bold" fill="#000" opacity="1">Command</text></g></g><path class="foreground" aria-hidden="true" d="" pointer-events="none" display="none"/></g></g><g class="mark-group role-axis" role="graphics-symbol" aria-roledescription="axis" aria-label="Y-axis titled 'Relative Speed in Comparison to luajit' for a linear scale with values from 0.0 to 1.0"><g transform="translate(0.5,0.5)"><path class="background" aria-hidden="true" d="M0,0h0v0h0Z" pointer-events="none"/><g><g class="mark-rule role-axis-tick" pointer-events="none"><line transform="translate(0,600)" x2="-5" y2="0" stroke="#888" stroke-width="1" opacity="1"/><line transform="translate(0,570)" x2="-5" y2="0" stroke="#888" stroke-width="1" opacity="1"/><line transform="translate(0,540)" x2="-5" y2="0" stroke="#888" stroke-width="1" opacity="1"/><line transform="translate(0,510)" x2="-5" y2="0" stroke="#888" stroke-width="1" opacity="1"/><line transform="translate(0,480)" x2="-5" y2="0" stroke="#888" stroke-width="1" opacity="1"/><line transform="translate(0,450)" x2="-5" y2="0" stroke="#888" stroke-width="1" opacity="1"/><line transform="translate(0,420)" x2="-5" y2="0" stroke="#888" stroke-width="1" opacity="1"/><line transform="translate(0,390)" x2="-5" y2="0" stroke="#888" stroke-width="1" opacity="1"/><line transform="translate(0,360)" x2="-5" y2="0" stroke="#888" stroke-width="1" opacity="1"/><line transform="translate(0,330)" x2="-5" y2="0" stroke="#888" stroke-width="1" opacity="1"/><line transform="translate(0,300)" x2="-5" y2="0" stroke="#888" stroke-width="1" opacity="1"/><line transform="translate(0,270)" x2="-5" y2="0" stroke="#888" stroke-width="1" opacity="1"/><line transform="translate(0,240)" x2="-5" y2="0" stroke="#888" stroke-width="1" opacity="1"/><line transform="translate(0,210)" x2="-5" y2="0" stroke="#888" stroke-width="1" opacity="1"/><line transform="translate(0,180)" x2="-5" y2="0" stroke="#888" stroke-width="1" opacity="1"/><line transform="translate(0,150)" x2="-5" y2="0" stroke="#888" stroke-width="1" opacity="1"/><line transform="translate(0,120)" x2="-5" y2="0" stroke="#888" stroke-width="1" opacity="1"/><line transform="translate(0,90)" x2="-5" y2="0" stroke="#888" stroke-width="1" opacity="1"/><line transform="translate(0,60)" x2="-5" y2="0" stroke="#888" stroke-width="1" opacity="1"/><line transform="translate(0,30)" x2="-5" y2="0" stroke="#888" stroke-width="1" opacity="1"/><line transform="translate(0,0)" x2="-5" y2="0" stroke="#888" stroke-width="1" opacity="1"/></g><g class="mark-text role-axis-label" pointer-events="none"><text text-anchor="end" transform="translate(-7,603)" font-family="sans-serif" font-size="10px" fill="#000" opacity="1">0.00</text><text text-anchor="end" transform="translate(-7,573)" font-family="sans-serif" font-size="10px" fill="#000" opacity="1">0.05</text><text text-anchor="end" transform="translate(-7,543)" font-family="sans-serif" font-size="10px" fill="#000" opacity="1">0.10</text><text text-anchor="end" transform="translate(-7,513)" font-family="sans-serif" font-size="10px" fill="#000" opacity="1">0.15</text><text text-anchor="end" transform="translate(-7,483)" font-family="sans-serif" font-size="10px" fill="#000" opacity="1">0.20</text><text text-anchor="end" transform="translate(-7,453)" font-family="sans-serif" font-size="10px" fill="#000" opacity="1">0.25</text><text text-anchor="end" transform="translate(-7,423)" font-family="sans-serif" font-size="10px" fill="#000" opacity="1">0.30</text><text text-anchor="end" transform="translate(-7,393)" font-family="sans-serif" font-size="10px" fill="#000" opacity="1">0.35</text><text text-anchor="end" transform="translate(-7,363)" font-family="sans-serif" font-size="10px" fill="#000" opacity="1">0.40</text><text text-anchor="end" transform="translate(-7,333)" font-family="sans-serif" font-size="10px" fill="#000" opacity="1">0.45</text><text text-anchor="end" transform="translate(-7,303)" font-family="sans-serif" font-size="10px" fill="#000" opacity="1">0.50</text><text text-anchor="end" transform="translate(-7,273)" font-family="sans-serif" font-size="10px" fill="#000" opacity="1">0.55</text><text text-anchor="end" transform="translate(-7,243)" font-family="sans-serif" font-size="10px" fill="#000" opacity="1">0.60</text><text text-anchor="end" transform="translate(-7,213)" font-family="sans-serif" font-size="10px" fill="#000" opacity="1">0.65</text><text text-anchor="end" transform="translate(-7,183.00000000000003)" font-family="sans-serif" font-size="10px" fill="#000" opacity="1">0.70</text><text text-anchor="end" transform="translate(-7,153)" font-family="sans-serif" font-size="10px" fill="#000" opacity="1">0.75</text><text text-anchor="end" transform="translate(-7,122.99999999999997)" font-family="sans-serif" font-size="10px" fill="#000" opacity="1">0.80</text><text text-anchor="end" transform="translate(-7,93.00000000000001)" font-family="sans-serif" font-size="10px" fill="#000" opacity="1">0.85</text><text text-anchor="end" transform="translate(-7,62.999999999999986)" font-family="sans-serif" font-size="10px" fill="#000" opacity="1">0.90</text><text text-anchor="end" transform="translate(-7,33.00000000000003)" font-family="sans-serif" font-size="10px" fill="#000" opacity="1">0.95</text><text text-anchor="end" transform="translate(-7,3)" font-family="sans-serif" font-size="10px" fill="#000" opacity="1">1.00</text></g><g class="mark-rule role-axis-domain" pointer-events="none"><line transform="translate(0,600)" x2="0" y2="-600" stroke="#888" stroke-width="1" opacity="1"/></g><g class="mark-text role-axis-title" pointer-events="none"><text text-anchor="middle" transform="translate(-43,300) rotate(-90) translate(0,-2)" font-family="sans-serif" font-size="11px" font-weight="bold" fill="#000" opacity="1">Relative Speed in Comparison to luajit</text></g></g><path class="foreground" aria-hidden="true" d="" pointer-events="none" display="none"/></g></g><g class="mark-rect role-mark marks" role="graphics-object" aria-roledescription="rect mark container"><path aria-label="Command: luajit; Relative Speed in Comparison to luajit: 1; command: luajit; relative_speed: 1" role="graphics-symbol" aria-roledescription="bar" d="M1.3333333333333144,0h24v600h-24Z" fill="#4c78a8"/><path aria-label="Command: lua; Relative Speed in Comparison to luajit: 0.946708563244; command: lua; relative_speed: 0.946708563244423" role="graphics-symbol" aria-roledescription="bar" d="M27.999999999999982,31.974862053346207h24v568.0251379466538h-24Z" fill="#4c78a8"/><path aria-label="Command: dash; Relative Speed in Comparison to luajit: 0.613609777126; command: dash; relative_speed: 0.6136097771263245" role="graphics-symbol" aria-roledescription="bar" d="M54.66666666666665,231.83413372420532h24v368.16586627579466h-24Z" fill="#4c78a8"/><path aria-label="Command: ksh; Relative Speed in Comparison to luajit: 0.47228889645; command: ksh; relative_speed: 0.4722888964502283" role="graphics-symbol" aria-roledescription="bar" d="M81.33333333333331,316.626662129863h24v283.373337870137h-24Z" fill="#4c78a8"/><path aria-label="Command: janet; Relative Speed in Comparison to luajit: 0.424343907561; command: janet; relative_speed: 0.4243439075612135" role="graphics-symbol" aria-roledescription="bar" d="M107.99999999999999,345.39365546327195h24v254.60634453672805h-24Z" fill="#4c78a8"/><path aria-label="Command: bash; Relative Speed in Comparison to luajit: 0.357477917972; command: bash; relative_speed: 0.3574779179718793" role="graphics-symbol" aria-roledescription="bar" d="M134.66666666666666,385.51324921687245h24v214.48675078312755h-24Z" fill="#4c78a8"/><path aria-label="Command: osh; Relative Speed in Comparison to luajit: 0.321993969073; command: osh; relative_speed: 0.32199396907310907" role="graphics-symbol" aria-roledescription="bar" d="M161.33333333333331,406.80361855613455h24v193.19638144386545h-24Z" fill="#4c78a8"/><path aria-label="Command: rust-script; Relative Speed in Comparison to luajit: 0.310309005854; command: rust-script; relative_speed: 0.3103090058542629" role="graphics-symbol" aria-roledescription="bar" d="M188,413.81459648744226h24v186.18540351255774h-24Z" fill="#4c78a8"/><path aria-label="Command: v.vsh; Relative Speed in Comparison to luajit: 0.266229841034; command: v.vsh; relative_speed: 0.2662298410341673" role="graphics-symbol" aria-roledescription="bar" d="M214.66666666666666,440.26209537949967h24v159.73790462050033h-24Z" fill="#4c78a8"/><path aria-label="Command: elvish; Relative Speed in Comparison to luajit: 0.26175259043; command: elvish; relative_speed: 0.2617525904304293" role="graphics-symbol" aria-roledescription="bar" d="M241.33333333333331,442.94844574174243h24v157.05155425825757h-24Z" fill="#4c78a8"/><path aria-label="Command: fish; Relative Speed in Comparison to luajit: 0.209195549266; command: fish; relative_speed: 0.20919554926600575" role="graphics-symbol" aria-roledescription="bar" d="M268,474.48267044039653h24v125.51732955960347h-24Z" fill="#4c78a8"/><path aria-label="Command: d.d; Relative Speed in Comparison to luajit: 0.165786710055; command: d.d; relative_speed: 0.16578671005539206" role="graphics-symbol" aria-roledescription="bar" d="M294.6666666666667,500.52797396676476h24v99.47202603323524h-24Z" fill="#4c78a8"/><path aria-label="Command: bun; Relative Speed in Comparison to luajit: 0.150446445595; command: bun; relative_speed: 0.1504464455949467" role="graphics-symbol" aria-roledescription="bar" d="M321.3333333333333,509.732132643032h24v90.267867356968h-24Z" fill="#4c78a8"/><path aria-label="Command: guile; Relative Speed in Comparison to luajit: 0.105430873584; command: guile; relative_speed: 0.10543087358374167" role="graphics-symbol" aria-roledescription="bar" d="M348,536.741475849755h24v63.258524150244966h-24Z" fill="#4c78a8"/><path aria-label="Command: python; Relative Speed in Comparison to luajit: 0.0709275431306; command: python; relative_speed: 0.07092754313063405" role="graphics-symbol" aria-roledescription="bar" d="M374.6666666666667,557.4434741216195h24v42.55652587838051h-24Z" fill="#4c78a8"/><path aria-label="Command: nushell; Relative Speed in Comparison to luajit: 0.0541720377485; command: nushell; relative_speed: 0.05417203774849618" role="graphics-symbol" aria-roledescription="bar" d="M401.3333333333333,567.4967773509022h24v32.50322264909778h-24Z" fill="#4c78a8"/><path aria-label="Command: ocaml; Relative Speed in Comparison to luajit: 0.0453446803945; command: ocaml; relative_speed: 0.04534468039447003" role="graphics-symbol" aria-roledescription="bar" d="M428,572.793191763318h24v27.206808236682036h-24Z" fill="#4c78a8"/><path aria-label="Command: php; Relative Speed in Comparison to luajit: 0.0297828123314; command: php; relative_speed: 0.029782812331427336" role="graphics-symbol" aria-roledescription="bar" d="M454.6666666666667,582.1303126011436h24v17.8696873988564h-24Z" fill="#4c78a8"/><path aria-label="Command: ruby; Relative Speed in Comparison to luajit: 0.0285613996144; command: ruby; relative_speed: 0.02856139961442148" role="graphics-symbol" aria-roledescription="bar" d="M481.3333333333333,582.8631602313471h24v17.136839768652862h-24Z" fill="#4c78a8"/><path aria-label="Command: racket; Relative Speed in Comparison to luajit: 0.0192381343231; command: racket; relative_speed: 0.019238134323104544" role="graphics-symbol" aria-roledescription="bar" d="M508,588.4571194061373h24v11.54288059386272h-24Z" fill="#4c78a8"/><path aria-label="Command: perl; Relative Speed in Comparison to luajit: 0.0177486704714; command: perl; relative_speed: 0.01774867047137648" role="graphics-symbol" aria-roledescription="bar" d="M534.6666666666667,589.3507977171741h24v10.649202282825854h-24Z" fill="#4c78a8"/><path aria-label="Command: r; Relative Speed in Comparison to luajit: 0.0127008973837; command: r; relative_speed: 0.01270089738368701" role="graphics-symbol" aria-roledescription="bar" d="M561.3333333333333,592.3794615697878h24v7.62053843021215h-24Z" fill="#4c78a8"/><path aria-label="Command: dart; Relative Speed in Comparison to luajit: 0.0112252985214; command: dart; relative_speed: 0.011225298521434071" role="graphics-symbol" aria-roledescription="bar" d="M588,593.2648208871395h24v6.735179112860465h-24Z" fill="#4c78a8"/><path aria-label="Command: swift; Relative Speed in Comparison to luajit: 0.00914985510692; command: swift; relative_speed: 0.009149855106922775" role="graphics-symbol" aria-roledescription="bar" d="M614.6666666666667,594.5100869358463h24v5.489913064153711h-24Z" fill="#4c78a8"/><path aria-label="Command: elixir; Relative Speed in Comparison to luajit: 0.00666463020325; command: elixir; relative_speed: 0.00666463020325013" role="graphics-symbol" aria-roledescription="bar" d="M641.3333333333333,596.0012218780499h24v3.9987781219500675h-24Z" fill="#4c78a8"/><path aria-label="Command: julia; Relative Speed in Comparison to luajit: 0.0056029009965; command: julia; relative_speed: 0.00560290099649561" role="graphics-symbol" aria-roledescription="bar" d="M668,596.6382594021027h24v3.361740597897324h-24Z" fill="#4c78a8"/><path aria-label="Command: java; Relative Speed in Comparison to luajit: 0.00395196332839; command: java; relative_speed: 0.00395196332838675" role="graphics-symbol" aria-roledescription="bar" d="M694.6666666666667,597.6288220029679h24v2.3711779970320777h-24Z" fill="#4c78a8"/><path aria-label="Command: scala; Relative Speed in Comparison to luajit: 0.00232201315436; command: scala; relative_speed: 0.0023220131543576876" role="graphics-symbol" aria-roledescription="bar" d="M721.3333333333333,598.6067921073854h24v1.393207892614555h-24Z" fill="#4c78a8"/><path aria-label="Command: haskell; Relative Speed in Comparison to luajit: 0.00205161607601; command: haskell; relative_speed: 0.002051616076013369" role="graphics-symbol" aria-roledescription="bar" d="M748,598.769030354392h24v1.2309696456079564h-24Z" fill="#4c78a8"/><path aria-label="Command: fsharp.fsx; Relative Speed in Comparison to luajit: 0.00170182605434; command: fsharp.fsx; relative_speed: 0.0017018260543366533" role="graphics-symbol" aria-roledescription="bar" d="M774.6666666666667,598.978904367398h24v1.021095632602055h-24Z" fill="#4c78a8"/></g><g class="mark-group role-title"><g transform="translate(400,-22)"><path class="background" aria-hidden="true" d="M0,0h0v0h0Z" pointer-events="none"/><g><g class="mark-text role-title-text" role="graphics-symbol" aria-roledescription="title" aria-label="Title text 'Relative Execution Speed (Higher is Better)'" pointer-events="none"><text text-anchor="middle" transform="translate(0,10)" font-family="sans-serif" font-size="13px" font-weight="bold" fill="#000" opacity="1">Relative Execution Speed (Higher is Better)</text></g></g><path class="foreground" aria-hidden="true" d="" pointer-events="none" display="none"/></g></g></g><path class="foreground" aria-hidden="true" d="" display="none"/></g></g></g></svg>