<svg xmlns="http://www.w3.org/2000/svg" xmlns:xlink="http://www.w3.org/1999/xlink" version="1.1" class="marks" width="864" height="724" viewBox="0 0 864 724"><rect width="864" height="724" fill="white"/><g fill="none" stroke-miterlimit="10" transform="translate(59,27)"><g class="mark-group role-frame root" role="graphics-object" aria-roledescription="group mark container"><g transform="translate(0,0)"><path class="background" aria-hidden="true" d="M0.5,0.5h800v600h-800Z" stroke="#ddd"/><g><g class="mark-group role-axis" aria-hidden="true"><g transform="translate(0.5,0.5)"><path class="background" aria-hidden="true" d="M0,0h0v0h0Z" pointer-events="none"/><g><g class="mark-rule role-axis-grid" pointer-events="none"><line transform="translate(0,600)" x2="800" y2="0" stroke="#ddd" stroke-width="1" opacity="1"/><line transform="translate(0,570)" x2="800" y2="0" stroke="#ddd" stroke-width="1" opacity="1"/><line transform="translate(0,540)" x2="800" y2="0" stroke="#ddd" stroke-width="1" opacity="1"/><line transform="translate(0,510)" x2="800" y2="0" stroke="#ddd" stroke-width="1" opacity="1"/><line transform="translate(0,480)" x2="800" y2="0" stroke="#ddd" stroke-width="1" opacity="1"/><line transform="translate(0,450)" x2="800" y2="0" stroke="#ddd" stroke-width="1" opacity="1"/><line transform="translate(0,420)" x2="800" y2="0" stroke="#ddd" stroke-width="1" opacity="1"/><line transform="translate(0,390)" x2="800" y2="0" stroke="#ddd" stroke-width="1" opacity="1"/><line transform="translate(0,360)" x2="800" y2="0" stroke="#ddd" stroke-width="1" opacity="1"/><line transform="translate(0,330)" x2="800" y2="0" stroke="#ddd" stroke-width="1" opacity="1"/><line transform="translate(0,300)" x2="800" y2="0" stroke="#ddd" stroke-width="1" opacity="1"/><line transform="translate(0,270)" x2="800" y2="0" stroke="#ddd" stroke-width="1" opacity="1"/><line transform="translate(0,240)" x2="800" y2="0" stroke="#ddd" stroke-width="1" opacity="1"/><line transform="translate(0,210)" x2="800" y2="0" stroke="#ddd" stroke-width="1" opacity="1"/><line transform="translate(0,180)" x2="800" y2="0" stroke="#ddd" stroke-width="1" opacity="1"/><line transform="translate(0,150)" x2="800" y2="0" stroke="#ddd" stroke-width="1" opacity="1"/><line transform="translate(0,120)" x2="800" y2="0" stroke="#ddd" stroke-width="1" opacity="1"/><line transform="translate(0,90)" x2="800" y2="0" stroke="#ddd" stroke-width="1" opacity="1"/><line transform="translate(0,60)" x2="800" y2="0" stroke="#ddd" stroke-width="1" opacity="1"/><line transform="translate(0,30)" x2="800" y2="0" stroke="#ddd" stroke-width="1" opacity="1"/><line transform="translate(0,0)" x2="800" y2="0" stroke="#ddd" stroke-width="1" opacity="1"/></g></g><path class="foreground" aria-hidden="true" d="" pointer-events="none" display="none"/></g></g><g class="mark-group role-axis" role="graphics-symbol" aria-roledescription="axis" aria-label="X-axis titled 'Command' for a discrete scale with 28 values: luajit, lua, dash, bash, ksh, ending with fsharp.fsx"><g transform="translate(0.5,600.5)"><path class="background" aria-hidden="true" d="M0,0h0v0h0Z" pointer-events="none"/><g><g class="mark-rule role-axis-tick" pointer-events="none"><line transform="translate(14,0)" x2="0" y2="5" stroke="#888" stroke-width="1" opacity="1"/><line transform="translate(42,0)" x2="0" y2="5" stroke="#888" stroke-width="1" opacity="1"/><line transform="translate(71,0)" x2="0" y2="5" stroke="#888" stroke-width="1" opacity="1"/><line transform="translate(100,0)" x2="0" y2="5" stroke="#888" stroke-width="1" opacity="1"/><line transform="translate(128,0)" x2="0" y2="5" stroke="#888" stroke-width="1" opacity="1"/><line transform="translate(157,0)" x2="0" y2="5" stroke="#888" stroke-width="1" opacity="1"/><line transform="translate(185,0)" x2="0" y2="5" stroke="#888" stroke-width="1" opacity="1"/><line transform="translate(214,0)" x2="0" y2="5" stroke="#888" stroke-width="1" opacity="1"/><line transform="translate(242,0)" x2="0" y2="5" stroke="#888" stroke-width="1" opacity="1"/><line transform="translate(271,0)" x2="0" y2="5" stroke="#888" stroke-width="1" opacity="1"/><line transform="translate(300,0)" x2="0" y2="5" stroke="#888" stroke-width="1" opacity="1"/><line transform="translate(328,0)" x2="0" y2="5" stroke="#888" stroke-width="1" opacity="1"/><line transform="translate(357,0)" x2="0" y2="5" stroke="#888" stroke-width="1" opacity="1"/><line transform="translate(385,0)" x2="0" y2="5" stroke="#888" stroke-width="1" opacity="1"/><line transform="translate(414,0)" x2="0" y2="5" stroke="#888" stroke-width="1" opacity="1"/><line transform="translate(442,0)" x2="0" y2="5" stroke="#888" stroke-width="1" opacity="1"/><line transform="translate(471,0)" x2="0" y2="5" stroke="#888" stroke-width="1" opacity="1"/><line transform="translate(500,0)" x2="0" y2="5" stroke="#888" stroke-width="1" opacity="1"/><line transform="translate(528,0)" x2="0" y2="5" stroke="#888" stroke-width="1" opacity="1"/><line transform="translate(557,0)" x2="0" y2="5" stroke="#888" stroke-width="1" opacity="1"/><line transform="translate(585,0)" x2="0" y2="5" stroke="#888" stroke-width="1" opacity="1"/><line transform="translate(614,0)" x2="0" y2="5" stroke="#888" stroke-width="1" opacity="1"/><line transform="translate(642,0)" x2="0" y2="5" stroke="#888" stroke-width="1" opacity="1"/><line transform="translate(671,0)" x2="0" y2="5" stroke="#888" stroke-width="1" opacity="1"/><line transform="translate(700,0)" x2="0" y2="5" stroke="#888" stroke-width="1" opacity="1"/><line transform="translate(728,0)" x2="0" y2="5" stroke="#888" stroke-width="1" opacity="1"/><line transform="translate(757,0)" x2="0" y2="5" stroke="#888" stroke-width="1" opacity="1"/><line transform="translate(785,0)" x2="0" y2="5" stroke="#888" stroke-width="1" opacity="1"/></g><g class="mark-text role-axis-label" pointer-events="none"><text text-anchor="end" transform="translate(13.785714285714302,7) rotate(315) translate(0,8)" font-family="sans-serif" font-size="10px" fill="#000" opacity="1">luajit</text><text text-anchor="end" transform="translate(42.357142857142875,7) rotate(315) translate(0,8)" font-family="sans-serif" font-size="10px" fill="#000" opacity="1">lua</text><text text-anchor="end" transform="translate(70.92857142857144,7) rotate(315) translate(0,8)" font-family="sans-serif" font-size="10px" fill="#000" opacity="1">dash</text><text text-anchor="end" transform="translate(99.50000000000003,7) rotate(315) translate(0,8)" font-family="sans-serif" font-size="10px" fill="#000" opacity="1">bash</text><text text-anchor="end" transform="translate(128.07142857142858,7) rotate(315) translate(0,8)" font-family="sans-serif" font-size="10px" fill="#000" opacity="1">ksh</text><text text-anchor="end" transform="translate(156.64285714285717,7) rotate(315) translate(0,8)" font-family="sans-serif" font-size="10px" fill="#000" opacity="1">janet</text><text text-anchor="end" transform="translate(185.21428571428575,7) rotate(315) translate(0,8)" font-family="sans-serif" font-size="10px" fill="#000" opacity="1">rust-script</text><text text-anchor="end" transform="translate(213.7857142857143,7) rotate(315) translate(0,8)" font-family="sans-serif" font-size="10px" fill="#000" opacity="1">v.vsh</text><text text-anchor="end" transform="translate(242.3571428571429,7) rotate(315) translate(0,8)" font-family="sans-serif" font-size="10px" fill="#000" opacity="1">elvish</text><text text-anchor="end" transform="translate(270.92857142857144,7) rotate(315) translate(0,8)" font-family="sans-serif" font-size="10px" fill="#000" opacity="1">bun</text><text text-anchor="end" transform="translate(299.5,7) rotate(315) translate(0,8)" font-family="sans-serif" font-size="10px" fill="#000" opacity="1">guile</text><text text-anchor="end" transform="translate(328.07142857142856,7) rotate(315) translate(0,8)" font-family="sans-serif" font-size="10px" fill="#000" opacity="1">fish</text><text text-anchor="end" transform="translate(356.64285714285717,7) rotate(315) translate(0,8)" font-family="sans-serif" font-size="10px" fill="#000" opacity="1">python</text><text text-anchor="end" transform="translate(385.2142857142857,7) rotate(315) translate(0,8)" font-family="sans-serif" font-size="10px" fill="#000" opacity="1">nushell</text><text text-anchor="end" transform="translate(413.7857142857143,7) rotate(315) translate(0,8)" font-family="sans-serif" font-size="10px" fill="#000" opacity="1">php</text><text text-anchor="end" transform="translate(442.3571428571429,7) rotate(315) translate(0,8)" font-family="sans-serif" font-size="10px" fill="#000" opacity="1">ocaml</text><text text-anchor="end" transform="translate(470.92857142857144,7) rotate(315) translate(0,8)" font-family="sans-serif" font-size="10px" fill="#000" opacity="1">osh</text><text text-anchor="end" transform="translate(499.5,7) rotate(315) translate(0,8)" font-family="sans-serif" font-size="10px" fill="#000" opacity="1">ruby</text><text text-anchor="end" transform="translate(528.0714285714287,7) rotate(315) translate(0,8)" font-family="sans-serif" font-size="10px" fill="#000" opacity="1">perl</text><text text-anchor="end" transform="translate(556.6428571428572,7) rotate(315) translate(0,8)" font-family="sans-serif" font-size="10px" fill="#000" opacity="1">racket</text><text text-anchor="end" transform="translate(585.2142857142858,7) rotate(315) translate(0,8)" font-family="sans-serif" font-size="10px" fill="#000" opacity="1">dart</text><text text-anchor="end" transform="translate(613.7857142857143,7) rotate(315) translate(0,8)" font-family="sans-serif" font-size="10px" fill="#000" opacity="1">swift</text><text text-anchor="end" transform="translate(642.3571428571429,7) rotate(315) translate(0,8)" font-family="sans-serif" font-size="10px" fill="#000" opacity="1">julia</text><text text-anchor="end" transform="translate(670.9285714285716,7) rotate(315) translate(0,8)" font-family="sans-serif" font-size="10px" fill="#000" opacity="1">elixir</text><text text-anchor="end" transform="translate(699.5000000000001,7) rotate(315) translate(0,8)" font-family="sans-serif" font-size="10px" fill="#000" opacity="1">scala</text><text text-anchor="end" transform="translate(728.0714285714287,7) rotate(315) translate(0,8)" font-family="sans-serif" font-size="10px" fill="#000" opacity="1">haskell</text><text text-anchor="end" transform="translate(756.6428571428572,7) rotate(315) translate(0,8)" font-family="sans-serif" font-size="10px" fill="#000" opacity="1">roc.roc</text><text text-anchor="end" transform="translate(785.2142857142858,7) rotate(315) translate(0,8)" font-family="sans-serif" font-size="10px" fill="#000" opacity="1">fsharp.fsx</text></g><g class="mark-rule role-axis-domain" pointer-events="none"><line transform="translate(0,0)" x2="800" y2="0" stroke="#888" stroke-width="1" opacity="1"/></g><g class="mark-text role-axis-title" pointer-events="none"><text text-anchor="middle" transform="translate(400,89.29646455628166)" font-family="sans-serif" font-size="11px" font-weight="bold" fill="#000" opacity="1">Command</text></g></g><path class="foreground" aria-hidden="true" d="" pointer-events="none" display="none"/></g></g><g class="mark-group role-axis" role="graphics-symbol" aria-roledescription="axis" aria-label="Y-axis titled 'Relative Speed in Comparison to luajit' for a linear scale with values from 0.0 to 1.0"><g transform="translate(0.5,0.5)"><path class="background" aria-hidden="true" d="M0,0h0v0h0Z" pointer-events="none"/><g><g class="mark-rule role-axis-tick" pointer-events="none"><line transform="translate(0,600)" x2="-5" y2="0" stroke="#888" stroke-width="1" opacity="1"/><line transform="translate(0,570)" x2="-5" y2="0" stroke="#888" stroke-width="1" opacity="1"/><line transform="translate(0,540)" x2="-5" y2="0" stroke="#888" stroke-width="1" opacity="1"/><line transform="translate(0,510)" x2="-5" y2="0" stroke="#888" stroke-width="1" opacity="1"/><line transform="translate(0,480)" x2="-5" y2="0" stroke="#888" stroke-width="1" opacity="1"/><line transform="translate(0,450)" x2="-5" y2="0" stroke="#888" stroke-width="1" opacity="1"/><line transform="translate(0,420)" x2="-5" y2="0" stroke="#888" stroke-width="1" opacity="1"/><line transform="translate(0,390)" x2="-5" y2="0" stroke="#888" stroke-width="1" opacity="1"/><line transform="translate(0,360)" x2="-5" y2="0" stroke="#888" stroke-width="1" opacity="1"/><line transform="translate(0,330)" x2="-5" y2="0" stroke="#888" stroke-width="1" opacity="1"/><line transform="translate(0,300)" x2="-5" y2="0" stroke="#888" stroke-width="1" opacity="1"/><line transform="translate(0,270)" x2="-5" y2="0" stroke="#888" stroke-width="1" opacity="1"/><line transform="translate(0,240)" x2="-5" y2="0" stroke="#888" stroke-width="1" opacity="1"/><line transform="translate(0,210)" x2="-5" y2="0" stroke="#888" stroke-width="1" opacity="1"/><line transform="translate(0,180)" x2="-5" y2="0" stroke="#888" stroke-width="1" opacity="1"/><line transform="translate(0,150)" x2="-5" y2="0" stroke="#888" stroke-width="1" opacity="1"/><line transform="translate(0,120)" x2="-5" y2="0" stroke="#888" stroke-width="1" opacity="1"/><line transform="translate(0,90)" x2="-5" y2="0" stroke="#888" stroke-width="1" opacity="1"/><line transform="translate(0,60)" x2="-5" y2="0" stroke="#888" stroke-width="1" opacity="1"/><line transform="translate(0,30)" x2="-5" y2="0" stroke="#888" stroke-width="1" opacity="1"/><line transform="translate(0,0)" x2="-5" y2="0" stroke="#888" stroke-width="1" opacity="1"/></g><g class="mark-text role-axis-label" pointer-events="none"><text text-anchor="end" transform="translate(-7,603)" font-family="sans-serif" font-size="10px" fill="#000" opacity="1">0.00</text><text text-anchor="end" transform="translate(-7,573)" font-family="sans-serif" font-size="10px" fill="#000" opacity="1">0.05</text><text text-anchor="end" transform="translate(-7,543)" font-family="sans-serif" font-size="10px" fill="#000" opacity="1">0.10</text><text text-anchor="end" transform="translate(-7,513)" font-family="sans-serif" font-size="10px" fill="#000" opacity="1">0.15</text><text text-anchor="end" transform="translate(-7,483)" font-family="sans-serif" font-size="10px" fill="#000" opacity="1">0.20</text><text text-anchor="end" transform="translate(-7,453)" font-family="sans-serif" font-size="10px" fill="#000" opacity="1">0.25</text><text text-anchor="end" transform="translate(-7,423)" font-family="sans-serif" font-size="10px" fill="#000" opacity="1">0.30</text><text text-anchor="end" transform="translate(-7,393)" font-family="sans-serif" font-size="10px" fill="#000" opacity="1">0.35</text><text text-anchor="end" transform="translate(-7,363)" font-family="sans-serif" font-size="10px" fill="#000" opacity="1">0.40</text><text text-anchor="end" transform="translate(-7,333)" font-family="sans-serif" font-size="10px" fill="#000" opacity="1">0.45</text><text text-anchor="end" transform="translate(-7,303)" font-family="sans-serif" font-size="10px" fill="#000" opacity="1">0.50</text><text text-anchor="end" transform="translate(-7,273)" font-family="sans-serif" font-size="10px" fill="#000" opacity="1">0.55</text><text text-anchor="end" transform="translate(-7,243)" font-family="sans-serif" font-size="10px" fill="#000" opacity="1">0.60</text><text text-anchor="end" transform="translate(-7,213)" font-family="sans-serif" font-size="10px" fill="#000" opacity="1">0.65</text><text text-anchor="end" transform="translate(-7,183.00000000000003)" font-family="sans-serif" font-size="10px" fill="#000" opacity="1">0.70</text><text text-anchor="end" transform="translate(-7,153)" font-family="sans-serif" font-size="10px" fill="#000" opacity="1">0.75</text><text text-anchor="end" transform="translate(-7,122.99999999999997)" font-family="sans-serif" font-size="10px" fill="#000" opacity="1">0.80</text><text text-anchor="end" transform="translate(-7,93.00000000000001)" font-family="sans-serif" font-size="10px" fill="#000" opacity="1">0.85</text><text text-anchor="end" transform="translate(-7,62.999999999999986)" font-family="sans-serif" font-size="10px" fill="#000" opacity="1">0.90</text><text text-anchor="end" transform="translate(-7,33.00000000000003)" font-family="sans-serif" font-size="10px" fill="#000" opacity="1">0.95</text><text text-anchor="end" transform="translate(-7,3)" font-family="sans-serif" font-size="10px" fill="#000" opacity="1">1.00</text></g><g class="mark-rule role-axis-domain" pointer-events="none"><line transform="translate(0,600)" x2="0" y2="-600" stroke="#888" stroke-width="1" opacity="1"/></g><g class="mark-text role-axis-title" pointer-events="none"><text text-anchor="middle" transform="translate(-43,300) rotate(-90) translate(0,-2)" font-family="sans-serif" font-size="11px" font-weight="bold" fill="#000" opacity="1">Relative Speed in Comparison to luajit</text></g></g><path class="foreground" aria-hidden="true" d="" pointer-events="none" display="none"/></g></g><g class="mark-rect role-mark marks" role="graphics-object" aria-roledescription="rect mark container"><path aria-label="Command: luajit; Relative Speed in Comparison to luajit: 1; command: luajit; relative_speed: 1" role="graphics-symbol" aria-roledescription="bar" d="M1.4285714285714448,0h25.714285714285715v600h-25.714285714285715Z" fill="#4c78a8"/><path aria-label="Command: lua; Relative Speed in Comparison to luajit: 0.896091103899; command: lua; relative_speed: 0.896091103898846" role="graphics-symbol" aria-roledescription="bar" d="M30.000000000000018,62.345337660692365h25.714285714285715v537.6546623393076h-25.714285714285715Z" fill="#4c78a8"/><path aria-label="Command: dash; Relative Speed in Comparison to luajit: 0.594514029892; command: dash; relative_speed: 0.594514029892085" role="graphics-symbol" aria-roledescription="bar" d="M58.57142857142859,243.29158206474898h25.714285714285715v356.708417935251h-25.714285714285715Z" fill="#4c78a8"/><path aria-label="Command: bash; Relative Speed in Comparison to luajit: 0.510541104225; command: bash; relative_speed: 0.5105411042249125" role="graphics-symbol" aria-roledescription="bar" d="M87.14285714285717,293.6753374650525h25.714285714285715v306.3246625349475h-25.714285714285715Z" fill="#4c78a8"/><path aria-label="Command: ksh; Relative Speed in Comparison to luajit: 0.450448256946; command: ksh; relative_speed: 0.45044825694637824" role="graphics-symbol" aria-roledescription="bar" d="M115.71428571428574,329.73104583217304h25.714285714285715v270.26895416782696h-25.714285714285715Z" fill="#4c78a8"/><path aria-label="Command: janet; Relative Speed in Comparison to luajit: 0.38594343805; command: janet; relative_speed: 0.38594343804967335" role="graphics-symbol" aria-roledescription="bar" d="M144.2857142857143,368.433937170196h25.714285714285715v231.56606282980403h-25.714285714285715Z" fill="#4c78a8"/><path aria-label="Command: rust-script; Relative Speed in Comparison to luajit: 0.256282274004; command: rust-script; relative_speed: 0.25628227400422227" role="graphics-symbol" aria-roledescription="bar" d="M172.8571428571429,446.23063559746663h25.714285714285715v153.76936440253337h-25.714285714285715Z" fill="#4c78a8"/><path aria-label="Command: v.vsh; Relative Speed in Comparison to luajit: 0.234048394545; command: v.vsh; relative_speed: 0.23404839454525764" role="graphics-symbol" aria-roledescription="bar" d="M201.42857142857144,459.57096327284546h25.714285714285715v140.42903672715454h-25.714285714285715Z" fill="#4c78a8"/><path aria-label="Command: elvish; Relative Speed in Comparison to luajit: 0.221044515851; command: elvish; relative_speed: 0.22104451585117238" role="graphics-symbol" aria-roledescription="bar" d="M230.00000000000003,467.3732904892966h25.714285714285715v132.6267095107034h-25.714285714285715Z" fill="#4c78a8"/><path aria-label="Command: bun; Relative Speed in Comparison to luajit: 0.136200286652; command: bun; relative_speed: 0.13620028665245637" role="graphics-symbol" aria-roledescription="bar" d="M258.5714285714286,518.2798280085262h25.714285714285715v81.72017199147376h-25.714285714285715Z" fill="#4c78a8"/><path aria-label="Command: guile; Relative Speed in Comparison to luajit: 0.0781189014084; command: guile; relative_speed: 0.07811890140841017" role="graphics-symbol" aria-roledescription="bar" d="M287.14285714285717,553.1286591549539h25.714285714285715v46.87134084504612h-25.714285714285715Z" fill="#4c78a8"/><path aria-label="Command: fish; Relative Speed in Comparison to luajit: 0.0746917583196; command: fish; relative_speed: 0.07469175831964973" role="graphics-symbol" aria-roledescription="bar" d="M315.7142857142857,555.1849450082102h25.714285714285715v44.81505499178979h-25.714285714285715Z" fill="#4c78a8"/><path aria-label="Command: python; Relative Speed in Comparison to luajit: 0.0665598428522; command: python; relative_speed: 0.06655984285216147" role="graphics-symbol" aria-roledescription="bar" d="M344.28571428571433,560.0640942887031h25.714285714285715v39.93590571129687h-25.714285714285715Z" fill="#4c78a8"/><path aria-label="Command: nushell; Relative Speed in Comparison to luajit: 0.0625263228838; command: nushell; relative_speed: 0.06252632288376216" role="graphics-symbol" aria-roledescription="bar" d="M372.8571428571429,562.4842062697427h25.714285714285715v37.515793730257315h-25.714285714285715Z" fill="#4c78a8"/><path aria-label="Command: php; Relative Speed in Comparison to luajit: 0.0533010642835; command: php; relative_speed: 0.053301064283484204" role="graphics-symbol" aria-roledescription="bar" d="M401.42857142857144,568.0193614299095h25.714285714285715v31.98063857009049h-25.714285714285715Z" fill="#4c78a8"/><path aria-label="Command: ocaml; Relative Speed in Comparison to luajit: 0.0490207963171; command: ocaml; relative_speed: 0.04902079631711545" role="graphics-symbol" aria-roledescription="bar" d="M430.00000000000006,570.5875222097308h25.714285714285715v29.412477790269236h-25.714285714285715Z" fill="#4c78a8"/><path aria-label="Command: osh; Relative Speed in Comparison to luajit: 0.0484052151754; command: osh; relative_speed: 0.04840521517535312" role="graphics-symbol" aria-roledescription="bar" d="M458.5714285714286,570.9568708947882h25.714285714285715v29.043129105211847h-25.714285714285715Z" fill="#4c78a8"/><path aria-label="Command: ruby; Relative Speed in Comparison to luajit: 0.0286234531348; command: ruby; relative_speed: 0.028623453134783313" role="graphics-symbol" aria-roledescription="bar" d="M487.14285714285717,582.82592811913h25.714285714285715v17.174071880869974h-25.714285714285715Z" fill="#4c78a8"/><path aria-label="Command: perl; Relative Speed in Comparison to luajit: 0.0183186220797; command: perl; relative_speed: 0.01831862207974205" role="graphics-symbol" aria-roledescription="bar" d="M515.7142857142858,589.0088267521548h25.714285714285715v10.991173247845154h-25.714285714285715Z" fill="#4c78a8"/><path aria-label="Command: racket; Relative Speed in Comparison to luajit: 0.0180699093149; command: racket; relative_speed: 0.018069909314871895" role="graphics-symbol" aria-roledescription="bar" d="M544.2857142857143,589.1580544110769h25.714285714285715v10.841945588923068h-25.714285714285715Z" fill="#4c78a8"/><path aria-label="Command: dart; Relative Speed in Comparison to luajit: 0.0106087930329; command: dart; relative_speed: 0.010608793032876327" role="graphics-symbol" aria-roledescription="bar" d="M572.8571428571429,593.6347241802742h25.714285714285715v6.365275819725753h-25.714285714285715Z" fill="#4c78a8"/><path aria-label="Command: swift; Relative Speed in Comparison to luajit: 0.00914043539334; command: swift; relative_speed: 0.009140435393336532" role="graphics-symbol" aria-roledescription="bar" d="M601.4285714285714,594.5157387639981h25.714285714285715v5.484261236001885h-25.714285714285715Z" fill="#4c78a8"/><path aria-label="Command: julia; Relative Speed in Comparison to luajit: 0.00727656174641; command: julia; relative_speed: 0.007276561746409138" role="graphics-symbol" aria-roledescription="bar" d="M630,595.6340629521545h25.714285714285715v4.3659370478454775h-25.714285714285715Z" fill="#4c78a8"/><path aria-label="Command: elixir; Relative Speed in Comparison to luajit: 0.00539540529545; command: elixir; relative_speed: 0.005395405295447109" role="graphics-symbol" aria-roledescription="bar" d="M658.5714285714287,596.7627568227317h25.714285714285715v3.237243177268283h-25.714285714285715Z" fill="#4c78a8"/><path aria-label="Command: scala; Relative Speed in Comparison to luajit: 0.00346540180668; command: scala; relative_speed: 0.003465401806676561" role="graphics-symbol" aria-roledescription="bar" d="M687.1428571428572,597.920758915994h25.714285714285715v2.0792410840059574h-25.714285714285715Z" fill="#4c78a8"/><path aria-label="Command: haskell; Relative Speed in Comparison to luajit: 0.00278348355389; command: haskell; relative_speed: 0.0027834835538944323" role="graphics-symbol" aria-roledescription="bar" d="M715.7142857142858,598.3299098676633h25.714285714285715v1.670090132336668h-25.714285714285715Z" fill="#4c78a8"/><path aria-label="Command: roc.roc; Relative Speed in Comparison to luajit: 0.00272495515401; command: roc.roc; relative_speed: 0.0027249551540054367" role="graphics-symbol" aria-roledescription="bar" d="M744.2857142857143,598.3650269075968h25.714285714285715v1.6349730924032428h-25.714285714285715Z" fill="#4c78a8"/><path aria-label="Command: fsharp.fsx; Relative Speed in Comparison to luajit: 0.0020894195166; command: fsharp.fsx; relative_speed: 0.0020894195165967085" role="graphics-symbol" aria-roledescription="bar" d="M772.8571428571429,598.746348290042h25.714285714285715v1.253651709958035h-25.714285714285715Z" fill="#4c78a8"/></g><g class="mark-group role-title"><g transform="translate(400,-22)"><path class="background" aria-hidden="true" d="M0,0h0v0h0Z" pointer-events="none"/><g><g class="mark-text role-title-text" role="graphics-symbol" aria-roledescription="title" aria-label="Title text 'Relative Execution Speed (Higher is Better)'" pointer-events="none"><text text-anchor="middle" transform="translate(0,10)" font-family="sans-serif" font-size="13px" font-weight="bold" fill="#000" opacity="1">Relative Execution Speed (Higher is Better)</text></g></g><path class="foreground" aria-hidden="true" d="" pointer-events="none" display="none"/></g></g></g><path class="foreground" aria-hidden="true" d="" display="none"/></g></g></g></svg>